/* XPM */
static char *bard[] = {
/* columns rows colors chars-per-pixel */
"64 64 172 2 ",
"   c None",
".  c #140A06",
"X  c #1E0E09",
"o  c #1F1009",
"O  c #210E09",
"+  c #25100B",
"@  c #2C140D",
"#  c #33160F",
"$  c #34190F",
"%  c #381B0F",
"&  c #371710",
"*  c #371A10",
"=  c #3C1B11",
"-  c #3E2111",
";  c #431E13",
":  c #442313",
">  c #4C2516",
",  c #462813",
"<  c #4D2A16",
"1  c #502717",
"2  c #502917",
"3  c #522718",
"4  c #552B19",
"5  c #5A2D1A",
"6  c #4F3215",
"7  c #543316",
"8  c #583617",
"9  c #5A3817",
"0  c #5C311B",
"q  c #5D3A18",
"w  c #63351D",
"e  c #623E1A",
"r  c #66411A",
"t  c #6B461C",
"y  c #744C1E",
"u  c #784F1F",
"i  c #79501F",
"p  c #825621",
"a  c #865922",
"s  c #8B5D24",
"d  c #926225",
"f  c #9C6424",
"g  c #9A6827",
"h  c #9A652A",
"j  c #9D6A2A",
"k  c #9A6D36",
"l  c #9D7039",
"z  c #A26523",
"x  c #A46926",
"c  c #A86C26",
"v  c #A36D2A",
"b  c #AA6E28",
"n  c #A6702A",
"m  c #AC722A",
"M  c #B07229",
"N  c #B5772B",
"B  c #B2762B",
"V  c #B3792D",
"C  c #B57A2E",
"Z  c #B47A2D",
"A  c #BB7E2F",
"S  c #B87D2F",
"D  c #BB7C2D",
"F  c #A16F34",
"G  c #A37335",
"H  c #A87337",
"J  c #A77439",
"K  c #A2753C",
"L  c #A5783C",
"P  c #B17A32",
"I  c #BC7F30",
"U  c #9F7642",
"Y  c #9F7844",
"T  c #9F7C4A",
"R  c #A37640",
"E  c #A37B46",
"W  c #AC7D45",
"Q  c #A97B43",
"!  c #A27D4A",
"~  c #A97F4A",
"^  c #BF8130",
"/  c #BD8131",
"(  c #B9843C",
")  c #BF883D",
"_  c #C2812F",
"`  c #C28331",
"'  c #C58431",
"]  c #C78531",
"[  c #C78732",
"{  c #C48532",
"}  c #C48432",
"|  c #C98732",
" . c #C88733",
".. c #CC8933",
"X. c #CE8B34",
"o. c #CC8A33",
"O. c #C2883A",
"+. c #CA8C39",
"@. c #D38F35",
"#. c #D28D35",
"$. c #D28E35",
"%. c #D69036",
"&. c #D79236",
"*. c #D59036",
"=. c #D99337",
"-. c #DA9437",
";. c #DA9437",
":. c #DF9738",
">. c #DD9638",
",. c #DD9638",
"<. c #E19737",
"1. c #E19738",
"2. c #E09839",
"3. c #E29939",
"4. c #E39A3A",
"5. c #E39A39",
"6. c #E49A3A",
"7. c #E59B3A",
"8. c #E49B3A",
"9. c #E69B3A",
"0. c #E69C3A",
"q. c #E79C3A",
"w. c #E79C3B",
"e. c #E79D3B",
"r. c #E59B3A",
"t. c #E89D3B",
"y. c #E99D3B",
"u. c #E99E3B",
"i. c #E89D3B",
"p. c #A3804E",
"a. c #B98946",
"s. c #A28151",
"d. c #AF8550",
"f. c #AA8554",
"g. c #AB8856",
"h. c #AB8B5B",
"j. c #B08B53",
"k. c #B58E59",
"l. c #B7925F",
"z. c #AF9163",
"x. c #B29263",
"c. c #BB9764",
"v. c #B99563",
"b. c #BB9967",
"n. c #B49A6E",
"m. c #BA9C6B",
"M. c #B49B70",
"N. c #BDA173",
"B. c #C1A16F",
"V. c #C2A270",
"C. c #C5A674",
"Z. c #C2A470",
"A. c #C6AB7B",
"S. c #C2AC80",
"D. c #CDB383",
"F. c #CEB688",
"G. c #CFB88A",
"H. c #D2BA8C",
"J. c #D5BF91",
"K. c #D5C194",
"L. c #DAC496",
"P. c #DECA9C",
"I. c #E2CFA1",
"U. c #E6D1A2",
"Y. c #EAD6A6",
"T. c #EBD7A8",
"R. c #EDD9AA",
"E. c #F2DEAE",
"W. c #F5E2B2",
"Q. c #FBE7B5",
"!. c #FCE9B7",
"~. c #FDEAB8",
/* pixels */
"                                                    : > > > < 2 2 < > > : :                                                     ",
"                                            : > 4 4 5 5 5 5 5 5 5 5 5 5 5 5 4 :   =                                             ",
"                                      : > 4 5 5 5 5 5 5 5 5 5 > 5 5 5 5 5 5 5 > $ 5 4 >                                         ",
"                                  : 2 5 5 5 5 5 5 5 5 4 4 2 > * > 1 1 4 4 5 5 4 2 5 5 5 5 2 :                                   ",
"                              : 2 5 5 5 5 5 5 4 1 > : : : = : : : : ; ; ; : : > 4 5 5 5 5 5 5 <                                 ",
"                            > 4 5 5 5 5 5 4 : : > 4 4 5 0 4 0 w w w 0 4 < 5 4 1 : : > 4 5 5 5 5 4 >                             ",
"                        = 4 5 5 5 5 5 > : 1 5 0 w w w w w 4 0 w w w w 4 4 w w w w 2 : > > 4 5 5 5 5 2                           ",
"                      : 4 5 5 5 5 4 1 4 4 w w w w w w w w 4 w w w w w 4 2 w w w w 0 < w 5 4 4 5 5 5 5 4 :                       ",
"                    > 5 5 5 5 5 4 5 w w 4 w w w w w w w 5 0 w w w w w 0 < w w w w 0 < 0 w w 0 4 4 5 5 5 5 :                     ",
"                  > 5 5 5 5 > 4 w w w w 4 0 w w w w w 0 4 w w w w w w 0 < 0 w w w 0 4 4 w w w w 2 - 4 5 5 5 >                   ",
"                > 5 5 5 4 : 6 < w w w w w 4 w w w w w 4 w w w w w w w 5 4 0 w w w w 4 0 4 0 w < e s < 4 5 5 5 :                 ",
"              : 5 5 5 4 , j &.a < 5 w w w 4 0 w w w 5 0 w w w w w w w 4 0 4 w w w w 4 w w > < s &.t.C < 4 5 5 5 :               ",
"            : 4 5 5 4 , n 0.0.9.C e < 0 w 5 0 w w w 4 0 w w w w w w w 4 w 4 w w w w 4 4 < u ` 0.0.9.t.V , 4 5 5 4               ",
"            4 5 5 5 : v 0.9.9.9.t.-.j q < 4 4 w w w 5 0 w w 0 0 w w w 4 w 4 0 w 5 : , u A 3.0.9.9.9.9.t.m : 5 5 5 4             ",
"          > 5 5 5 : s 0.9.9.9.9.9.9.t.=.n t , < 5 w 0 0 w 4 0 0 4 w w 4 w 4 , < 9 s [ 9.t.9.9.9.9.9.9.9.0.d : 5 5 5 >           ",
"        : 5 5 5 > t :.9.9.9.9.9.9.9.9.0.t.3.[ g y 9 < : : < 4 4 , : < , 8 r s A -.t.0.9.9.9.9.9.9.9.9.9.9.3.y > 5 5 4 -         ",
"        4 5 5 4 < [ 0.9.9.9.9.9.9.9.9.9.9.9.0.t.9.&.[ m j d s s d g m ^ #.3.t.t.9.9.9.9.9.9.9.9.9.9.9.9.9.0.X.7 4 5 5 2         ",
"      : 5 5 5 : d t.9.9.0.0.0.0.9.9.9.9.9.9.9.9.9.0.0.t.t.t.t.t.0.t.0.0.0.9.9.9.9.9.9.9.9.9.9.0.0.0.0.0.9.9.t.v : 5 5 5 :       ",
"      4 5 5 4 8 &.0.0.:.#.| [ X.:.0.9.9.9.9.9.9.9.9.9.9.9.9.9.9.9.9.9.9.9.9.9.9.9.9.9.9.9.0.9.&.| [ X.=.3.0.9.3.t > 5 5 2       ",
"    : 5 5 5 : g t.-.D c z z z f x _ 3.9.9.9.9.9.9.9.9.9.9.9.9.9.9.9.9.9.9.9.9.9.9.9.9.9.0.&.M z f z z z m | 9.t.A , 5 5 5 :     ",
"    > 5 5 4 7 #.3.b z v W c.C.B.d.h N 3.9.9.9.9.9.9.9.9.9.9.9.9.9.9.9.9.9.9.9.9.9.9.9.0.#.z F l.C.V.k.J x z [ 0.9.y > 5 5 >     ",
"    4 5 5 > p t.X.z H H.E.!.~.!.W.H.k A 0.9.9.9.9.9.9.9.9.9.9.9.9.9.9.9.9.9.9.9.9.9.9.:.x d.I.Q.~.!.Q.Y.m.x m 9.t.C : 5 5 4     ",
"  : 5 5 5 : C t.#.f b.~.!.Q.Q.Q.Q.~.H.j =.9.9.9.9.9.9.9.9.9.9.9.9.9.9.9.9.9.9.9.9.9.0.D E R.!.Q.Q.Q.Q.!.R.K m 9.9.:.e 4 5 5 :   ",
"  @ > 5 4 8 =.0.:.z v.!.Q.Q.Q.Q.Q.Q.Q.z.D 0.9.9.9.9.9.9.9.9.9.9.9.9.9.9.9.9.9.9.9.9.,.j H.!.Q.Q.Q.Q.Q.!.R.l A 0.9.t.d : 4 5 >   ",
"  : > 5 > u 0.9.0.N R R.!.Q.Q.Q.Q.Q.!.L.F 3.9.9.9.9.9.9.9.9.9.9.9.9.9.9.9.9.9.9.9.0.[ ! W.Q.Q.Q.Q.Q.Q.!.H.h &.0.9.0.^ : > > >   ",
"  5 5 5 : j t.9.0.@.g D.~.Q.Q.Q.Q.Q.Q.E.E &.0.9.9.9.9.9.9.9.9.9.9.9.9.9.9.9.9.9.9.0.B N.~.Q.Q.Q.Q.Q.Q.W.g.B 9.9.9.9.-.9 4 5 >   ",
": 5 5 4 : A t.9.9.9.D U T.!.Q.Q.Q.Q.Q.!.h.X.0.9.9.9.9.9.9.9.9.9.9.9.9.9.9.9.9.9.9.0.n G.~.Q.Q.Q.Q.Q.~.F.j =.0.9.9.9.9.y 1 5 5 : ",
"> 5 4 4 < X.0.9.9.9.3.m g.R.~.!.!.!.!.I.E ,.9.9.9.9.9.9.9.9.9.9.9.9.9.9.9.9.9.9.9.0.` z.W.!.!.!.!.!.K.l ..0.9.9.9.9.t.s > 5 5 : ",
"> 5 5 4 9 -.9.9.9.9.9.3.C ! S.P.P.J.Z.a.&.0.9.9.9.9.9.9.9.9.9.9.9.9.9.9.9.9.9.3.9.9.9.{ j.A.L.P.K.n.G X.0.9.9.9.9.9.t.j > 5 5 > ",
"> 5 5 4 e 3.9.9.9.9.9.9.0.=.` ( ) +.=.9.0.9.9.9.9.9.9.9.9.9.9.9.9.9.9.3.9.9.3.3.9.9.9.0.<.#.O.( ( ..3.0.9.9.9.9.9.9.t.m : 5 5 > ",
"> 5 5 4 t 9.9.9.9.9.9.9.9.0.0.0.0.0.9.9.9.9.9.9.9.9.9.9.9.9.9.9.9.9.9.3.9.9.1.9.9.9.9.9.9.0.0.0.0.0.9.9.9.9.9.9.9.9.t.B : 5 5 > ",
": 5 5 1 t 9.t.9.9.9.9.9.9.9.9.9.9.9.9.9.9.9.9.9.9.9.9.9.9.9.9.9.9.9.9.9.9.3.3.9.9.9.9.9.9.9.9.9.9.9.9.9.9.9.9.9.9.0.t.n : 5 4 $ ",
"= 5 5 4 - t V :.t.9.9.9.9.9.9.9.9.9.9.3.9.9.9.9.9.9.9.9.9.9.9.9.9.9.9.9.9.3.9.9.9.9.9.9.9.9.9.9.9.9.9.9.9.9.9.0.9.[ a , > 4 = $ ",
"* 5 5 5 : = = q v -.t.9.9.9.9.9.9.9.9.3.3.9.9.9.9.9.9.9.9.9.9.9.9.9.9.9.9.9.9.9.9.9.9.9.9.9.9.9.9.9.9.9.9.0.9.^ u : * ; 4 : 4 : ",
"$ 4 5 5 2 0 4 ; * 8 v -.t.9.9.9.9.9.9.9.3.9.9.9.9.9.9.9.9.9.9.9.9.9.9.9.9.9.9.9.9.9.9.9.9.9.9.9.9.9.9.0.9.I t = = > 5 4 4 2 5 = ",
"$ > 5 5 2 w w 0 4 ; $ 8 m 3.0.9.9.9.9.9.3.3.9.9.9.9.9.9.9.9.9.9.9.9.9.9.9.9.9.9.9.9.9.9.9.9.9.9.9.0.0.[ u - $ > 5 w w 4 4 4 5 $ ",
"@ > 4 5 2 0 w w w w > = $ r ^ 0.0.9.9.9.9.1.9.9.9.9.9.9.9.9.9.9.9.9.9.9.9.9.9.9.9.9.9.9.9.9.9.9.t.&.a - = 1 2 w w w w 4 5 5 4 @ ",
"+ > 2 5 4 0 w w w w 4 0 > * : s -.0.9.9.9.3.3.9.9.9.9.9.9.9.9.9.9.9.9.9.9.9.9.9.9.9.9.9.9.9.0.9.B 7 * ; 5 w 4 w w w w 2 5 5 4 X ",
". > > 4 4 4 w w w 0 4 w 5 4 > * q ` 0.9.9.9.1.9.9.9.9.9.9.9.9.9.9.9.9.9.9.9.9.9.9.9.9.9.9.0.-.a = * 5 0 0 w 4 w w w 0 2 5 5 >   ",
"  : 4 > 5 2 w w w 0 0 w 0 0 w 5 = : ^ 0.9.9.3.3.9.3.9.9.9.9.9.9.9.9.9.9.9.9.9.9.9.9.9.9.9.-.t * 1 4 0 0 4 w 4 w w w 4 4 5 5 =   ",
"  $ 5 < 4 4 0 w w 0 0 w 0 0 w w 4 * r 3.9.9.9.3.9.3.1.3.9.9.9.9.9.9.9.9.9.9.9.9.9.9.9.9.0.j * 4 w 0 0 w 4 w 0 4 w w 2 5 5 5 @   ",
"  + 4 5 > > 4 w w 5 0 w 0 5 w w 5 > : ..0.9.9.9.3.9.9.3.9.9.9.0.9.9.9.9.9.9.9.9.9.9.9.9.9.r ; w w 0 0 w 4 0 w 5 0 0 2 5 5 2 O   ",
"    : 5 5 > : w w 5 0 w 0 4 w w 4 4 = V t.9.9.9.9.9.9.9.9.0.<.@.&.3.0.9.9.9.9.9.9.9.9.9.:.7 > w w 0 5 w 0 0 w w 4 4 4 5 5 ;     ",
"    # 4 5 5 < 4 w 0 5 w w 4 w w 4 5 * v t.9.9.9.9.9.9.9.3.^ E z.h.L X.0.9.9.9.9.9.9.9.0.*., 4 w w 0 4 w 0 4 w w 4 < 5 5 4 @     ",
"    X > 5 5 5 2 w w 4 w w 4 w w 4 0 * d t.9.9.9.9.9.9.9.P M.R.!.Q.P.s.` 0.9.9.9.9.9.9.0...: 4 w w w 4 w w 4 w w : 4 5 5 : X     ",
"      $ 5 5 5 4 4 w 4 0 w 4 w w 4 0 = p t.9.9.9.9.9.0.[ h.W.!.Q.Q.!.T.T X.0.9.9.9.9.9.t.^ = 4 w w w 4 w w 4 0 0 > 5 5 4 $       ",
"      O > 5 5 5 < 0 0 4 w 4 w w 4 0 ; y 0.9.9.9.9.9.3.G P.!.Q.Q.Q.Q.~.H.v 3.9.9.9.9.9.t.m * 5 w w w 4 w w 0 0 4 4 5 5 : O       ",
"        # 4 5 5 4 4 w 4 w < 0 w 4 w ; r 9.9.9.9.9.0.$.p.W.Q.Q.Q.Q.Q.Q.E.Y $.0.9.9.9.9.t.v * 5 w w w 4 w w 0 > 4 5 5 4 #         ",
"        O ; 5 5 5 4 4 0 5 2 4 w 4 w ; 9 3.9.9.9.9.0._ x.!.Q.Q.Q.Q.Q.Q.Q.h._ 0.9.9.9.9.t.d * 5 w w w 4 w w 0 : 4 5 5 ; O         ",
"          @ > 5 5 5 2 5 4 4 < w 4 w : 7 -.9.9.9.9.0.D m.!.Q.Q.Q.Q.Q.Q.Q.h.D 0.9.9.9.9.t.a * 0 w w w 4 w 0 < > 5 5 > @           ",
"            $ 4 5 5 5 2 < 4 < w 4 w : , &.0.9.9.9.0.D x.!.Q.Q.Q.Q.Q.Q.Q.f.A 0.9.9.9.9.0.i = 0 w w w 4 w 2 4 4 5 2 $             ",
"            O * 4 5 5 5 > 4 2 0 4 w > : X.0.9.9.9.0._ E W.Q.Q.Q.Q.Q.!.E.K _ 0.9.9.9.9.0.t ; 0 w w w 4 2 4 4 5 4 * O             ",
"              + = 4 5 5 5 > : 4 4 w > - [ 0.9.9.9.0.@.h K.~.Q.Q.Q.Q.~.H.h #.0.9.9.9.9.3.e ; 0 w w 4 : 4 5 5 4 = +               ",
"                @ ; 4 5 5 $ o : 4 w > = ^ 0.9.9.9.9.3.c ~ Y.~.!.!.~.U.Q x 3.9.9.9.9.9.3.q ; 0 w 0 < 4 5 5 4 = @                 ",
"                  @ ; 2 = @ > 4 > 5 1 = A t.9.9.9.9.0.X.f W D.P.L.A.Q f [ 0.9.9.9.9.9.:.8 ; 0 4 2 5 5 5 4 = @                   ",
"                    @ # = 5 5 5 5 2 : % A t.9.9.9.9.9.9.` z z v v z z _ 9.9.9.9.9.9.0.3.8 ; > 4 5 5 5 > = @                     ",
"                      O * : 4 5 5 5 4 = i | 9.t.0.9.9.9.9.&.A M B A &.9.9.9.9.0.t.0.#.g : > 5 5 5 4 : * +                       ",
"                        O $ ; 2 5 5 5 5 > , t v X.3.t.t.t.t.0.0.0.t.t.t.t.t.3.#.m u < : 4 5 5 5 > ; $ O                         ",
"                            @ = : 4 5 5 5 5 : = : e a v A ..#.&.&.#...I n a r , = ; 4 5 5 5 4 : * @                             ",
"                              O # = : 2 5 5 5 5 3 ; = * = : , , , , : = * * ; > 4 5 5 5 2 : = # O                               ",
"                                  + $ = ; > 4 5 5 5 5 4 1 : ; ; ; ; : > 1 4 5 5 5 4 > ; = $ +                                   ",
"                                      O # * = ; : > 4 4 5 5 5 4 4 4 5 4 4 4 > : ; = * # O                                       ",
"                                            + # & * = ; ; : : : : : : ; ; = * & # +                                             ",
"                                                    + @ @ # # $ $ # # @ @ +                                                     "
};
