/* XPM */
static char *car[] = {
/* columns rows colors chars-per-pixel */
"64 64 253 2 ",
"   c None",
".  c #5D525F",
"X  c #5D535F",
"o  c #5D545F",
"O  c #5C5360",
"+  c #5D5360",
"@  c #5D5261",
"#  c #5D5361",
"$  c #5E5360",
"%  c #5E5460",
"&  c #5E5461",
"*  c #5F5561",
"=  c #5F5562",
"-  c #615764",
";  c #625865",
":  c #645A66",
">  c #645A67",
",  c #665B68",
"<  c #695F6B",
"1  c #6A616C",
"2  c #6A626E",
"3  c #6B626E",
"4  c #6C636E",
"5  c #6C636F",
"6  c #6D6571",
"7  c #6E6571",
"8  c #6F6571",
"9  c #6D6671",
"0  c #6F6671",
"q  c #706773",
"w  c #716874",
"e  c #716975",
"r  c #736A76",
"t  c #736B76",
"y  c #746B76",
"u  c #746C76",
"i  c #776F7A",
"p  c #78707B",
"a  c #7A727C",
"s  c #7C747F",
"d  c #7E7680",
"f  c #7F7882",
"g  c #807881",
"h  c #817983",
"j  c #817A83",
"k  c #827B85",
"l  c #847C86",
"z  c #857D87",
"x  c #857E87",
"c  c #857F87",
"v  c #857F88",
"b  c #867E88",
"n  c #868089",
"m  c #87808A",
"M  c #88818A",
"N  c #8A828B",
"B  c #8A838C",
"V  c #8A848C",
"C  c #8B848D",
"Z  c #8B848E",
"A  c #8D868F",
"S  c #8E8790",
"D  c #8F8891",
"F  c #8F8991",
"G  c #8F8992",
"H  c #8F8A93",
"J  c #908A92",
"K  c #908A93",
"L  c #928B94",
"P  c #918C94",
"I  c #928C94",
"U  c #938D95",
"Y  c #938D96",
"T  c #948D96",
"R  c #948E96",
"E  c #958E97",
"W  c #958F97",
"Q  c #969098",
"!  c #979199",
"~  c #98929A",
"^  c #99929B",
"/  c #9A949B",
"(  c #9A939C",
")  c #9A959C",
"_  c #9B949D",
"`  c #9B959D",
"'  c #9C969D",
"]  c #9C969E",
"[  c #9D969E",
"{  c #9D979F",
"}  c #9E989F",
"|  c #9E99A0",
" . c #A19BA2",
".. c #A19BA3",
"X. c #A19CA3",
"o. c #A29CA3",
"O. c #A29DA3",
"+. c #A39EA5",
"@. c #A49EA5",
"#. c #A59EA6",
"$. c #A59FA6",
"%. c #A6A1A8",
"&. c #A7A1A8",
"*. c #A6A2A8",
"=. c #A7A2A9",
"-. c #A8A3AA",
";. c #AAA4AB",
":. c #A9A5AC",
">. c #ACA7AD",
",. c #AEAAB1",
"<. c #B0ABB2",
"1. c #B1ACB2",
"2. c #B2AEB4",
"3. c #B5B1B7",
"4. c #B6B2B7",
"5. c #B7B2B8",
"6. c #B7B3B9",
"7. c #B7B4B9",
"8. c #B8B3B8",
"9. c #B8B4BA",
"0. c #B9B5BA",
"q. c #B9B6BB",
"w. c #BBB6BC",
"e. c #BBB7BC",
"r. c #BDB9BE",
"t. c #FF8086",
"y. c #FF8187",
"u. c #FF8288",
"i. c #FF8389",
"p. c #FD858B",
"a. c #EE959A",
"s. c #EC989D",
"d. c #E99CA0",
"f. c #F39EA3",
"g. c #E6A1A5",
"h. c #EFA7AC",
"j. c #E9B5BA",
"k. c #BEBAC0",
"l. c #BFBCC1",
"z. c #C0BCC1",
"x. c #C0BDC2",
"c. c #C1BEC2",
"v. c #C2BFC4",
"b. c #C3BFC4",
"n. c #C3C0C5",
"m. c #C4C1C5",
"M. c #C5C2C6",
"N. c #C6C3C8",
"B. c #C8C4C8",
"V. c #C8C5C8",
"C. c #C8C5C9",
"Z. c #C8C6C9",
"A. c #C9C6CA",
"S. c #C9C7CA",
"D. c #CAC6CB",
"F. c #CAC7CB",
"G. c #CBC7CC",
"H. c #CAC8CB",
"J. c #CBC8CC",
"K. c #CCC8CC",
"L. c #CCC9CD",
"P. c #CDCACE",
"I. c #CDCBCE",
"U. c #CECBCF",
"Y. c #CFCCCF",
"T. c #D9C9CD",
"R. c #DFCCCF",
"E. c #CFCBD0",
"W. c #CFCCD1",
"Q. c #D0CDD1",
"!. c #D0CED1",
"~. c #D1CED1",
"^. c #D0CED2",
"/. c #D1CFD3",
"(. c #D2CFD2",
"). c #D2CFD3",
"_. c #D2D0D2",
"`. c #D2D0D3",
"'. c #D3D0D3",
"]. c #D2D0D4",
"[. c #D3D0D4",
"{. c #D3D1D4",
"}. c #D4D2D5",
"|. c #D5D2D5",
" X c #D4D3D6",
".X c #D5D3D6",
"XX c #D6D3D6",
"oX c #D6D3D7",
"OX c #D6D4D7",
"+X c #D6D5D7",
"@X c #D6D4D8",
"#X c #D7D5D9",
"$X c #D7D6D8",
"%X c #D8D5D9",
"&X c #D8D6D9",
"*X c #D8D7D9",
"=X c #D9D7DA",
"-X c #D9D7DB",
";X c #DAD7DA",
":X c #DAD7DB",
">X c #DAD7DC",
",X c #D9D8DA",
"<X c #D9D8DB",
"1X c #DAD8DA",
"2X c #DAD9DA",
"3X c #DAD8DB",
"4X c #DBD8DB",
"5X c #DAD9DB",
"6X c #DAD8DC",
"7X c #DAD9DC",
"8X c #DBD9DC",
"9X c #DDDBDD",
"0X c #DDDBDE",
"qX c #DEDCDE",
"wX c #DEDCDF",
"eX c #E3C3C7",
"rX c #E0DEE0",
"tX c #E0DEE1",
"yX c #E1DFE2",
"uX c #E2E2E3",
"iX c #E4E3E5",
"pX c #E6E4E6",
"aX c #E6E5E7",
"sX c #E7E5E7",
"dX c #E7E6E8",
"fX c #E9E8EA",
"gX c #EAE8EA",
"hX c #ECE9EC",
"jX c #ECEAEC",
"kX c #ECEBEC",
"lX c #EDEBED",
"zX c #EDECED",
"xX c #EEEDEE",
"cX c #EFEEEF",
"vX c #EFEEF0",
"bX c #F0EFF0",
"nX c #F0EFF1",
"mX c #F2F1F2",
"MX c #F4F3F4",
"NX c #F5F4F5",
"BX c gray96",
"VX c #F5F5F6",
"CX c #F7F6F7",
"ZX c gray97",
"AX c #F8F8F8",
"SX c #F9F8F9",
"DX c gray98",
"FX c #FAFAFB",
"GX c #FBFBFB",
"HX c gray99",
"JX c #FDFDFD",
"KX c #FEFEFE",
"LX c white",
/* pixels */
"                                                                                                                                ",
"                                                                                                                                ",
"                                                                                                                                ",
"                                                                                                                                ",
"                                                                                                                                ",
"                                                                                                                                ",
"                                                                                                                                ",
"                                                                                                                                ",
"                                                                                                                                ",
"                                                                                                                                ",
"                                                                                                                                ",
"                                                                                                                                ",
"                                                                                                                                ",
"                                                                                                                                ",
"                                                                                                                                ",
"                                                                                                                                ",
"                                                                                                                                ",
"                                                                                                                                ",
"                                                                                                                                ",
"                                          3X3X3X3X3X3X3X3X3X3X3X3X3X3X3X3X                                                      ",
"                                  -X3X3X3X3X3X3X3X3X3X3X3X3X3X3X3X3X3X3X3X3X3X                                                  ",
"                              6X3X3X3XE.2.9.,.;.%.+.+.+.} < 2 +.+.+.@.:.5.E.3X3X6X                                              ",
"                          3X3X3X-Xm.H % r ` ` ` ` ` ` ` E + % ` ` ` ` ` ` ' 5.-X3X3X                                            ",
"                    6X3X3X3X3Xv. .` h + r ` ` ` ` ` ` ` E + % ` ` ` ` ` ` ` ` 1.-X3X6X                                          ",
"            6X3X3X3X3X3X3X3X3X%.` / h + r U L L U U E E H + % ! ^ ^ ( ( ` ` ` ` 1.-X3X6X                                        ",
"  6X3X3X3X3X3X3X3X3X3X3X3X3X3Xw.x x u + 2 x x x x x x x h + % x x x x x x x b m N +.-X3X6X                                      ",
"  3X3X3X3X3X3X3X3X3X3X3X3X3X3X3X>.x u + 2 x x x x x x x h + % x x x x x x x x x x x o.-X3X6X                                    ",
"  f.h.eX3X3X3X3X3X3X3X3X3X3X3X3X3XG.| s B %.o.o. .' ' ` U 4 4 J J H Z Z Z x x x x x x z.3X3X6X                                  ",
"  u.t.t.j.3X3X3X3X3X3X3X3X3X3X3X3X3X3X3X3X3X3X3X3X3X3X3X3X3X3X3X3X3X3X3X3X3X3X-X.X.X.X3X3X3X3X3X3X>X>X3X3X3X-X3X3X              ",
"  u.t.t.p.-X3X3X3X3X3X3X3X3X3X3X3X3X3X3X3X3X3X3X3X3X3X3X3X3X3X3X3X3X3X3X3X3X3X3X3X3X3X3X3X3X3X3X3X3X3X3X3X3X3X3X3X3X3X3X3X      ",
"  t.t.t.t.R.3X3X3X3X-X.X_.~._..X3X3X3X3X3X3X3X3X3X3X3X3X3X3X3X3X3X3X3X3X3X3X3X3X3X3X3X3X3X3X3X3X3X3XOX].~.~..X-X3X3X3X3X6XyXpX  ",
"  g.d.s.a.T.OX#XOX~.S.S.S.S.S.S.S.].3X3X3X3X3X3X3X3X3X3X3X3X3X3X3X3X3X3X3X3X3X3X3X3X3X3X3X3X3X3X].S.S.S.S.S.S.S.~.-X3XwXfXkXkX  ",
"S.S.S.S.S.S.S.S.S.S.S.5.| !  .r.S.S.H.W.~.~.].]..X.X.XOX#X-X-X-X-X-X-X-X-X-X-X3X3X3X3X3X3X-X-XK.S.S.k.o.! } 3.S.S.H.#XpXkXkXkXkX",
"S.S.S.S.S.S.S.S.S.9.a + + + + % x z.S.S.S.S.S.S.S.S.S.S.B.B.S.S.S.S.G.K.K.K.K.W.~.~.~.].].].J.S.n.m % + + + + i 8.S.S.uXkXkXkXkX",
"S.S.S.S.S.S.S.S.5., + - A ' b % + 8 z.S.S.S.S.S.S.S.S.S.S.S.S.S.S.S.S.S.S.S.S.B.S.S.S.S.S.S.S.v.r + % x ' H > + > 2.S.S.~..XoX-X",
"S.S.S.S.S.S.S.N.8 + k zXLXLXLXyXr + f S.S.S.S.S.S.S.S.S.S.S.S.S.S.S.S.S.S.S.B.B.S.S.S.S.S.S.S.x + 8 0XLXLXLXbXN + 2 m.S.S.S.S.S.",
"S.S.S.S.S.S.S.@.+ 8 BXLXFXMXLXLXpX- + 3.S.S.S.S.S.S.S.S.S.S.S.S.S.S.S.S.S.S.S.B.S.S.S.S.S.S.w.% % yXLXLXMXFXLXFXy + ' S.S.S.S.S.",
"  S.S.S.S.S.S.x + <.LXBX6X3X0XFXLXE + ! S.S.S.S.S.S.S.S.S.S.S.S.S.S.S.S.S.S.S.S.S.S.S.S.S.S.' + Z LXLXwX3X6XBXLX9.+ d S.S.S.S.S.",
"    B.S.S.S.S.i + K.LXfX3X3X3XvXLX<.+ B S.S.S.S.S.S.S.S.B.B.S.S.S.S.S.S.S.S.S.S.S.S.S.S.S.S.J + %.LXmX3X3X3XdXLX.X+ r S.S.S.S.S.",
"          S.S.d + z.LXzX3X3X3XBXLX@.+ H S.S.S.S.S.S.S.S.B.B.S.S.S.S.S.S.S.S.S.S.S.S.S.S.S.S.Q + ` LXBX3X3X3XzXLXS.+ i S.S.S.S.S.",
"              8 + B LXLXzXiXbXLXFXq + o.S.S.S.S.S.S.S.S.S.S.S.S.S.S.S.S.S.S.S.S.S.S.S.S.S.S.-.+ 4 FXLXmXiXkXLXLXS + N S.S.S.S.  ",
"                + + w.LXLXLXLXLX' + +                                                         + + ^ LXLXLXLXLXl.+ X             ",
"                  + + E ~.yXS.x + +                                                             + + h N.yX_.^ % +               ",
"                    X + + + + + +                                                                 + + + + + + + o               ",
"                      + + + + +                                                                       X + + +                   ",
"                                                                                                                                ",
"                                                                                                                                ",
"                                                                                                                                ",
"                                                                                                                                ",
"                                                                                                                                ",
"                                                                                                                                ",
"                                                                                                                                ",
"                                                                                                                                ",
"                                                                                                                                ",
"                                                                                                                                ",
"                                                                                                                                ",
"                                                                                                                                ",
"                                                                                                                                ",
"                                                                                                                                ",
"                                                                                                                                ",
"                                                                                                                                ",
"                                                                                                                                ",
"                                                                                                                                ",
"                                                                                                                                "
};
