/* XPM */
static char *collectible[] = {
/* columns rows colors chars-per-pixel */
"64 64 233 2 ",
"   c None",
".  c #783C17",
"X  c #7D4217",
"o  c #7F4D2D",
"O  c #874B1C",
"+  c #874819",
"@  c #9B571C",
"#  c #904F19",
"$  c #A65D1C",
"%  c #A5591A",
"&  c #AB611C",
"*  c #834722",
"=  c #8A4E2A",
"-  c #8A4E25",
";  c #8C542B",
":  c #8B5428",
">  c #945522",
",  c #92542A",
"<  c #945B2C",
"1  c #945924",
"2  c #8D5B3B",
"3  c #885834",
"4  c #935D34",
"5  c #995C35",
"6  c #965E39",
"7  c #985A36",
"8  c #924D21",
"9  c #A45A23",
"0  c #A25B2B",
"q  c #8E623E",
"w  c #956035",
"e  c #9B6134",
"r  c #95633C",
"t  c #9A623B",
"y  c #9C693D",
"u  c #9F6837",
"i  c #AB652B",
"p  c #A9652A",
"a  c #B56924",
"s  c #B1642C",
"d  c #B36C2C",
"f  c #B6682C",
"g  c #BC752C",
"h  c #BD782C",
"j  c #B7702E",
"k  c #A36432",
"l  c #AE6534",
"z  c #A56B34",
"x  c #AC6C34",
"c  c #A2653A",
"v  c #AB653A",
"b  c #A56B3C",
"n  c #AA6D3C",
"m  c #B36D36",
"M  c #B36C3B",
"N  c #B76A35",
"B  c #A7703C",
"V  c #AA713E",
"C  c #BB7433",
"Z  c #BF7935",
"A  c #B5743B",
"S  c #BB743B",
"D  c #BE7A3D",
"F  c #B67136",
"G  c #C27B3A",
"H  c #C17836",
"J  c #88674C",
"K  c #936342",
"L  c #9D6644",
"P  c #976A44",
"I  c #9C6B4B",
"U  c #8B6B54",
"Y  c #936C56",
"T  c #93725B",
"R  c #997C5D",
"E  c #967354",
"W  c #977454",
"Q  c #A46C44",
"!  c #A96B43",
"~  c #A36D4B",
"^  c #AA6D4F",
"/  c #AB7244",
"(  c #A4734B",
")  c #AC754C",
"_  c #A67545",
"`  c #BB7742",
"'  c #B47A45",
"]  c #B97A44",
"[  c #B3754A",
"{  c #B57C4B",
"}  c #BA7D4B",
"|  c #B27443",
" . c #AD6E52",
".. c #AD7453",
"X. c #A57A52",
"o. c #A67859",
"O. c #B17355",
"+. c #BA7751",
"@. c #B57C51",
"#. c #BC7C53",
"$. c #B57558",
"%. c #967664",
"&. c #AB7F62",
"*. c #C17D4D",
"=. c #C17D45",
"-. c #C07B56",
";. c #C47F59",
":. c #CB833C",
">. c #C7863E",
",. c #9D8158",
"<. c #B4814B",
"1. c #BC824C",
"2. c #B98046",
"3. c #AC8353",
"4. c #A8855A",
"5. c #B28252",
"6. c #BE8453",
"7. c #BA875B",
"8. c #9E8660",
"9. c #A88667",
"0. c #B98865",
"q. c #BD9468",
"w. c #B28D71",
"e. c #B6947C",
"r. c #BA9678",
"t. c #AE9663",
"y. c #BAA470",
"u. c #C5834D",
"i. c #CC874E",
"p. c #C9884A",
"a. c #D28E44",
"s. c #D38D4C",
"d. c #D98E47",
"f. c #DC934C",
"g. c #D5944E",
"h. c #C28453",
"j. c #C98654",
"k. c #C48855",
"l. c #CA8B54",
"z. c #C4855A",
"x. c #C58C5B",
"c. c #CA8C5B",
"v. c #D48C5A",
"b. c #D38855",
"n. c #CB925D",
"m. c #C79257",
"M. c #D2945C",
"N. c #DB955D",
"B. c #DD9A5C",
"V. c #D69557",
"C. c #E0964C",
"Z. c #E2975D",
"A. c #E69B57",
"S. c #E48F5E",
"D. c #D6A35D",
"F. c #EDA256",
"G. c #E6A65D",
"H. c #EBA25B",
"J. c #E5A95E",
"K. c #F0A55F",
"L. c #CC8E61",
"P. c #C58D6D",
"I. c #C68E6B",
"U. c #CC9462",
"Y. c #CB946B",
"T. c #C99769",
"R. c #D29563",
"E. c #D49963",
"W. c #DB9C64",
"Q. c #D59B6B",
"!. c #DB9B6B",
"~. c #D59668",
"^. c #CC9670",
"/. c #C99A77",
"(. c #D59E77",
"). c #D18C60",
"_. c #E59D6E",
"`. c #E69B65",
"'. c #E59E71",
"]. c #C8A464",
"[. c #DDA265",
"{. c #DCA16C",
"}. c #D7A768",
"|. c #CAA576",
" X c #DCA272",
".X c #DDA37A",
"XX c #D7AC7B",
"oX c #D8A976",
"OX c #E4A263",
"+X c #ECA563",
"@X c #EBAA65",
"#X c #E9A86A",
"$X c #F1AC69",
"%X c #F4A966",
"&X c #EAB16A",
"*X c #FAB26A",
"=X c #F3B369",
"-X c #E4A473",
";X c #E3AB7C",
":X c #E9AC7C",
">X c #E8A772",
",X c #EBB17D",
"<X c #E3B077",
"1X c #F2B373",
"2X c #B59681",
"3X c #CA9D80",
"4X c #D7A684",
"5X c #D7B698",
"6X c #CEAA91",
"7X c #E4AC83",
"8X c #EAAD84",
"9X c #EAB588",
"0X c #F2B88A",
"qX c #EBB491",
"wX c #E9BA93",
"eX c #F3BC94",
"rX c #F6BE96",
"tX c #E0AE92",
"yX c #EABFA1",
"uX c #F2C69C",
"iX c #F1C097",
"pX c #E6C5A8",
"aX c #F5CCA7",
"sX c #E5CDB4",
"dX c #EBD2BC",
"fX c #FADBB4",
"gX c #F8D3AA",
"hX c #EDD7C3",
"jX c #F3DBC4",
"kX c #FBE7C5",
"lX c #FFF4D9",
"zX c #FDEAD2",
"xX c #FEF7E1",
/* pixels */
"                                                                                                                                ",
"                                                                                                                                ",
"                                                          xXfX5X2Xe.                                                            ",
"                                                      hXkXkXpX3Xw.9.9.e.                                                        ",
"                                                    5XpXgXwX(.3Xw.W P o.w.                                                      ",
"                                                    wX0X:Xc./.sXsXw.P r o.                                                      ",
"                                                  4X7X-XM.} 4XdXsXe.r y ( 0.                                                    ",
"                                                yX^.~.v.u.h.9XgXpXr.r c Q ) q.                                                  ",
"                                          hXhXjXaXY.k.u.1.n.eXaXwXY.b k v { I.|.|.                                              ",
"                                        6XhXlXlXkXoX6.} 1.U.0XrX:Xc.] x ] R.-X XT.y.y.                                          ",
"                                      2Xe.pXzXlXkXXX<.V } k.!.!.R.c.z.c.!.-X:X;XXX|.t.8.                                        ",
"                                      %.o./.pXkXfX9Xn.k.n.R.!.!.!.!.!.!.~.!.:X9XXXq.4.,.                                        ",
"                                      T I 0.tXaXeX8X{.R.U.U.R.R.!.!.!.!.c.c.!.,XoX7.3.4.                                        ",
"                                      o.~ P.qXrX:X:X!.c.1.<.<.1.h.h.h.j.z.h.c. XQ.7.7.0.                                        ",
"                                      o.( ^.eXrX X-XR.] z z z z x x x M h.R.R.R.U.k.z.P.                                        ",
"                                      o.~ Y.qXeX-X>XM.] A u.M.M.l.] k x l.!.W.R.n.z.z.Y.                                        ",
"                                      &.~ Y.qXeX-X>Xv.S A l.N.W.M.u.x A m.[.{.E.n.z.z.P.                                        ",
"                                      &.~ I.qX0X'._.v.D A u.M.W.E.l.A 2.n.[.{.Q.n.h.7.0.                                        ",
"                                      0.( I.7X8X_._.b.` A =.l.M.n.j.2.2.n.{.{.!.n.#.@.0.                                        ",
"                                        ..0..X8X'._.b.S x M ] 1.1.} 2.' m.{.{.Q.U.} #.4X                                        ",
"                                        ..0.(.7X!.!.c.} | V n n b b ' } x.U.x.k.k.c.^.4X                                        ",
"                                        ..^.wXaXuX8X#.k e e e e c b / b n / 6.Y. X;X.XP.                                        ",
"                                      9.( Y.iXfXfX7X[ , , < < e b Q e , < n x..X;X8X^...                                        ",
"                                      R P 7..XuXuXY.b 4 4 4 w t Q ! : + 1 { Q. XQ.R.#.~                                         ",
"                                      T K ) L.!. Xz.b e t y Q Q Q t : X > } Q.R.x.z.+.^                                         ",
"                                      T r ) z.~. X{.6.b t L Q ~ Q t < O z n.{.E.x.h.+.^                                         ",
"                                      T q ) c.R.!.{.h.b t t L L t t t < ' E.W.E.x.z.+. .                                        ",
"                                      T q / j.N.R.W.6.b 5 t L t t t b z 2.E.W.M.x.z.+. .                                        ",
"                                      T q / j.N.W.E.1.c 5 6 t t t t b b 1.E.W.M.c.z.+. .                                        ",
"                                      T 2 ! h.v.W.E.} c 5 t t t t t b b 1.E.W.M.x.z.+. .                                        ",
"                                      T K ! } u.u.j.{ b 6 t 6 t t t b n 1.E.W.M.n.c.#...                                        ",
"                                      U 2 ! *.i.i.u.n e 5 6 6 t t t b V h.E.W.M.n.c.-.O.                                        ",
"                                      J 3 b -.v.N.l.n < < 6 6 t 4 w Q V 6.E.W.M.c.c.-.O.                                        ",
"                                      J 3 ! j.N.W.R.| , = 6 6 6 4 w / V 1.E.W.M.c.c.-.O.                                        ",
"                                      J 2 [ b.N.V.E.[ , * 4 4 4 4 t ) n 1.E.W.M.n.c.-.O.                                        ",
"                                      J K [ v.N.N.W.#.5 * = 4 4 w y { b 1.E.W.M.n.c.;.$.                                        ",
"                                      Y L +.v.`.B.W.h.c = X ; w r Q @.B 2.M.W.E.U.L.;.$.                                        ",
"                                      T I +.v.Z.B.W.h.! 7 . ; 5 y _ @.B } M.W.W.U.L.z.$.                                        ",
"                                      T I +.v.Z.B.W.*.! 5 * : 5 y _ 5.B } M.W.W.R.L.z.$.                                        ",
"                                      T L [ v.Z.Z.W.*.v c 5 - < y _ @.B } M.W.W.M.c.h.$.                                        ",
"                                      U 3 b u.N.+XOXp.x k k O : y Q _ z ' M.{.[.M.l.} (                                         ",
"                                      J 2 / i.V.H.+Xp.d p l # 1 u b B z 2.E.-X[.M.l.<.I                                         ",
"                                      J P 6.M.V.A.+Xa.d p m @ 1 k z p x u.E.!.E.U.U.7.o.                                        ",
"                                      T ( x.W.A.f.+Xs.j p F @ @ i i p k ' Y.(.^.^.|.                                            ",
"                                      R X.x.`.A.d.K.f.C d m @ % s f l O = E                                                     ",
"                                      R X.x.OXH.d.H.f.C d F @ % s N l O o Y                                                     ",
"                                      R 3.n.+X+Xf.H.f.H j S 9 9 l M v O * 2 I ~ L                                               ",
"                                      8.3.U.$X%XC.H.f.G C S 9 9 l M v 8 + + - - , 7 r K                                         ",
"                                      9.5.R.$X$XA.H.f.G C F 9 9 l M l 0 # # > > v +.) r                                         ",
"                                      9.5.M.$X*XA.H.f.:.C F 9 9 l N m m ` l.W.-X0XeX(.X.                                        ",
"                                      9.5.M.$X*XA.H.f.:.C F 9 9 s N S D i.B.OXOX>X'.).+.                                        ",
"                                      9.5.M.$X*XF.H.f.:.C C 9 $ s S S G s.OX#XOX`.S.b.#.                                        ",
"                                        5.M.$X*XF.F.f.:.Z C $ $ s C Z Z s.#X=X@X+XZ.b.#.                                        ",
"                                        @.M.$X*XF.F.f.:.Z C $ $ f C g h a.J.=X@X+XZ.i.}                                         ",
"                                        <.M.@X*XF.F.C.:.Z C $ $ a C g h a.J.=X@XG.B.l.{                                         ",
"                                        5.n.$X*XH.H.f.:.Z C $ % a g g h a.G.=X@XJ.D.m.3.                                        ",
"                                          R.>X1XOXG.g.>.Z C & $ a g g g a.+X1X&X}.].].                                          ",
"                                            ;X:X[.[.V.p.G Z & & a g g Z s.#X,X<XoX|.                                            ",
"                                              XX}.[.M.p.=.D i i j H D D M.-X,X;X                                                ",
"                                                    U.7.5.{ k k | 6.6.6.Y.                                                      ",
"                                                                                                                                ",
"                                                                                                                                ",
"                                                                                                                                ",
"                                                                                                                                "
};
