/* XPM */
static char *result[] = {
/* columns rows colors chars-per-pixel */
"64 64 214 2 ",
"   c black",
".  c #010000",
"X  c #000100",
"o  c #070101",
"O  c #070303",
"+  c #0E0403",
"@  c #110404",
"#  c #120404",
"$  c #120504",
"%  c #150707",
"&  c #1D0707",
"*  c #1E0807",
"=  c #1C070A",
"-  c #180808",
";  c #220505",
":  c #240505",
">  c #260505",
",  c #260606",
"<  c #270606",
"1  c #2B0606",
"2  c #240B0B",
"3  c #2C0B0A",
"4  c #280D0D",
"5  c #300707",
"6  c #3D0909",
"7  c #2B1F00",
"8  c #391E0C",
"9  c #3C1313",
"0  c #3E1414",
"q  c #3F1515",
"w  c #272400",
"e  c #292700",
"r  c #2B2700",
"t  c #3D210C",
"y  c #343000",
"u  c #420A0A",
"i  c #420B0B",
"p  c #480B0B",
"a  c #4B0B0B",
"s  c #4D0C0C",
"d  c #510D0D",
"f  c #580D0D",
"g  c #4B1311",
"h  c #4C1311",
"j  c #561312",
"k  c #501413",
"l  c #511413",
"z  c #5A1715",
"x  c #5E1716",
"c  c #5E1816",
"v  c #591D1D",
"b  c #5E1F1F",
"n  c #621A1A",
"m  c #741212",
"M  c #791515",
"N  c #7D1414",
"B  c #721C1A",
"V  c #672020",
"C  c #692222",
"Z  c #474100",
"A  c #434400",
"S  c #484900",
"D  c #554E00",
"F  c #535300",
"G  c #796F00",
"H  c #727100",
"J  c #787800",
"K  c #881515",
"L  c #801F1E",
"P  c #971717",
"I  c #AA1A1A",
"U  c #AB1A1A",
"Y  c #AB1B1A",
"T  c #AC1B1B",
"R  c #B51B1B",
"E  c #B61B1B",
"W  c #B21F1E",
"Q  c #B61C1C",
"!  c #B71C1C",
"~  c #B81C1C",
"^  c #B81D1C",
"/  c #B81D1D",
"(  c #BD1F1F",
")  c #BF1F1F",
"_  c #AD201F",
"`  c #8E2320",
"'  c #862B2C",
"]  c #902321",
"[  c #902421",
"{  c #9B2624",
"}  c #962A28",
"|  c #993132",
" . c #993232",
".. c #9A3232",
"X. c #9B3233",
"o. c #A72926",
"O. c #A82926",
"+. c #A82A27",
"@. c #AF2B28",
"#. c #B02221",
"$. c #B52220",
"%. c #BE2020",
"&. c #BF2120",
"*. c #BE2422",
"=. c #B62D2A",
"-. c #B92E2B",
";. c #BB2F2B",
":. c #BD2F2C",
">. c #A63535",
",. c #A73535",
"<. c #AB3737",
"1. c #B03837",
"2. c #BA3A3C",
"3. c #BA3C3C",
"4. c #C12221",
"5. c #C22221",
"6. c #C32221",
"7. c #C52524",
"8. c #C62624",
"9. c #C72624",
"0. c #C72625",
"q. c #C82625",
"w. c #C82725",
"e. c #CE2A28",
"r. c #CE2B29",
"t. c #CF2B29",
"y. c #D32B29",
"u. c #D02C2A",
"i. c #D12D2A",
"p. c #D22D2B",
"a. c #D32D2B",
"s. c #D02E2B",
"d. c #D42E2B",
"f. c #D22E2C",
"g. c #D42E2C",
"h. c #D52F2C",
"j. c #C4312E",
"k. c #C8322F",
"l. c #D7302D",
"z. c #DB322F",
"x. c #DB332F",
"c. c #DD322F",
"v. c #C63E3F",
"b. c #DB3330",
"n. c #DB3733",
"m. c #DD3430",
"M. c #DF3531",
"N. c #DF3532",
"B. c #DC3733",
"V. c #D93A38",
"C. c #E03532",
"Z. c #E13632",
"A. c #E13633",
"S. c #E13733",
"D. c #E23733",
"F. c #E23734",
"G. c #E33734",
"H. c #E33834",
"J. c #E43834",
"K. c #E43935",
"L. c #E53935",
"P. c #E63935",
"I. c #E63A35",
"U. c #E73A35",
"Y. c #E63A36",
"T. c #E73A36",
"R. c #E63A37",
"E. c #E63B37",
"W. c #E73B37",
"Q. c #E83935",
"!. c #E83A36",
"~. c #EB3E3A",
"^. c #ED3E3B",
"/. c #EA3E3D",
"(. c #EB3F3D",
"). c #ED3F3D",
"_. c #ED403C",
"`. c #F1403D",
"'. c #C83F40",
"]. c #DE4747",
"[. c #E74747",
"{. c #EA4340",
"}. c #E84544",
"|. c #EC4644",
" X c #F64745",
".X c #F74745",
"XX c #F44A49",
"oX c #F74A48",
"OX c #F84A48",
"+X c #FB4B4A",
"@X c #FC4C4A",
"#X c #FD4C4A",
"$X c #FF5353",
"%X c #9C9100",
"&X c #AC8B00",
"*X c #A39600",
"=X c #A89A00",
"-X c #A6A200",
";X c #B1A500",
":X c #B6AD00",
">X c #BCAC00",
",X c #BFBA00",
"<X c #CFBE00",
"1X c #D9C700",
"2X c #D3CA00",
"3X c #E6D600",
"4X c #EBD700",
"5X c #F0DC00",
"6X c #EBE100",
"7X c #F4E600",
"8X c #FFED00",
"9X c #FFEE00",
"0X c #FFF100",
"qX c None",
/* pixels */
"qXqXqXqXqXqXqXqXqXqXqXqXqXqXqXqXqXqXqXqXqXqXqXqXqXqXqXqXqXqXqXqXqXqXqXqXqXqXqXqXqXqXqXqXqXqXqXqXqXqXqXqXqXqXqXqXqXqXqXqXqXqXqXqX",
"qXqXqXqXqXqXqXqXqXqXqXqXqXqXqXqXqXqXqXqXqXqXqXqXqXqXqXqXqXqXqXqXqXqXqXqXqXqXqXqXqXqXqXqXqXqXqXqXqXqXqXqXqXqXqXqXqXqXqXqXqXqXqXqX",
"qXqXqXqXqXqXqXqXqXqXqXqXqXqXqXqXqXqXqXqXqXqXqXqXqXqXqXqXqXqXqXqXqXqXqXqXqXqXqXqXqXqXqXqXqXqXqXqXqXqXqXqXqXqXqXqXqXqXqXqXqXqXqXqX",
"qXqXqXqXqXqXqXqXqXqXqXqXqXqXqXqXqXqXqXqXqXqXqXqXqXqXqXqXqXqXqXqXqXqXqXqXqXqXqXqXqXqXqXqXqXqXqXqXqXqXqXqXqXqXqXqXqXqXqXqXqXqXqXqX",
"qXqXqXqXqXqXqXqXqXqXqXqXqXqXqXqXqXqXqXqXqXqXqXqXqXqXqXqXqXqXqXqXqXqXqXqXqXqXqXqXqXqXqXqXqXqXqXqXqXqXqXqXqXqXqXqXqXqXqXqXqXqXqXqX",
"qXqXqXqXqXqXqXqXqXqXqXqXqXqXqXqXqXqXqXqXqXqXqXqXqXqXqXqXqXqXqXqXqXqXqXqXqXqXqXqXqXqXqXqXqXqXqXqXqXqXqXqXqXqXqXqXqXqXqXqXqXqXqXqX",
"qXqXqXqXqXqXqXqXqXqXqXqXqXqXqXqXqXqXqXqXqXqXqXqXqXqXqXqXqXqXqXqXqXqXqXqXqXqXqXqXqXqXqXqXqXqXqXqXqXqXqXqXqXqXqXqXqXqXqXqXqXqXqXqX",
"qXqXqXqXqXqXqXqXqXqXqXqXqXqXqXqXqXqXqXqXqXqXqXqXqXqXqXqXqXqXqXqXqXqXqXqXqXqXqXqXqXqXqXqXqXqXqXqXqXqXqXqXqXqXqXqXqXqXqXqXqXqXqXqX",
"qXqXqXqXqXqXqXqXqXqXqXqXqXqXqXqXqXqXqXqXqXqXqXqXqXqXqXqXqXqXqXqXqXqXqXqXqXqXqXqXqXqXqXqXqXqXqXqXqXqXqXqXqXqXqXqXqXqXqXqXqXqXqXqX",
"qXqXqXqXqXqXqXqXqXqXqXqXqXqXqXqXqXqXqXqXqXqXqXqXqXqXqXqXqXqXqXqXqXqXqXqXqXqXqXqXqXqXqXqXqXqXqXqXqXqXqXqXqXqXqXqXqXqXqXqXqXqXqXqX",
"qXqXqXqXqXqXqXqXqXqXqXqXqXqXqXqXqXqXqXqXqXqXqXqXqXqXqXqXqXqXqXqXqXqXqXqXqXqXqXqXqXqXqXqXqXqXqXqXqXqXqXqXqXqXqXqXqXqXqXqXqXqXqXqX",
"qXqXqXqXqXqXqXqXqXqXqXqXqXqXqXqXqXqXqXqXqXqXqXqXqXqXqXqXqXqXqXqXqXqXqXqXqXqXqXqXqXqXqXqXqXqXqXqXqXqXqXqXqXqXqXqXqXqXqXqXqXqXqXqX",
"qXqXqXqXqXqXqXqXqXqXqXqXqXqXqXqXqXqXqXqXqXqXqXqXqXqXqXqXqXqXqXqXqXqXqXqXqXqXqXqXqXqXqXqXqXqXqXqXqXqXqXqXqXqXqXqXqXqXqXqXqXqXqXqX",
"qXqXqXqXqXqXqXqXqXqXqXqXqXqXqXqXqXqXqXqXqXqXqXqXqXqXqXqXqXqXqXqXqXqXqXqXqXqXqXqXqXqXqXqXqXqXqXqXqXqXqXqXqXqXqXqXqXqXqXqXqXqXqXqX",
"qXqXqXqXqXqXqXqXqXqXqXqXqXqXqXqXqXqXqXqXqXqXqXqXqXqXqXqXqXqXqXqXqXqXqXqXqXqXqXqXqXqXqXqXqXqXqXqXqXqXqXqXqXqXqXqXqXqXqXqXqXqXqXqX",
"qXqXqXqXqXqXqXqXqXqXqX7 w qXqXqXqXqXqXqXqXqXqXqXqXqXqXqXqXqXv } ] [ [ [ [ [ ` M 5 qXqXqXqXqXqXqXqXqXqXqXqXqXqXqXqXqXqXqXqXqXqXqX",
"qXqXqXqXqXqXqXqXqXqXqX&X3X*XD qXqXqXqXqXqXqXqXqXqXqXqXqX- <.}.`.Q.!.!.!.!.!.!.c.#.s qXqXqXqXqXqXqXqXqXqXqXqXqXqXqXqXqXqXqXqXqXqX",
"qXqXqXqXqXqXqXqXqXqXqXS ,X7X4X=XZ r qXqXqXqXqXqXqXqXqX% ,. Xk.B h l k k k k l g { y.N qXqXqXqXqXqXqXqXqXqXqXqXqXqXqXqXqXqXqXqXqX",
"qXqXqXqXqXqXqXqXqXqXqXqXqXH 6X0X5X1XG y qXqXqXqXqXqX- >..X+.3 . qXqXqXqXqXqXqXqX* o.$.6 qXqXqXqXqXqXqXqXqXqXqXqXqXqXqXqXqXqXqXqX",
"qXqXqXqXqXqXqXqXqXqXqXqXqXqXA -X0X9X8X<X>Xe = O qXqXq |.:.& qXqXqXqXqXqXqXqXqXqXqXz s.m qXqXqXqXqXqXqXqXqXqXqXqXqXqXqXqXqXqXqXqX",
"qXqXqXqXqXqXqXqXqXqXqXqXqXqXqXqXJ 2X0X0X;X8 2.L > o 9 {.@.+ # @ @ @ @ @ @ @ @ @ @ $ O.*.1 qXqXqXqXqXqXqXqXqXqXqXqXqXqXqXqXqXqXqX",
"qXqXqXqXqXqXqXqXqXqXqXqXqXqXqXqXqXF :X%Xt v.(.6._ =.j.E.B.;.-.-.-.-.-.-.-.-.-.-.-.;.n.f.d : qXqXqXqXqXqXqXqXqXqXqXqXqXqXqXqXqXqX",
"qXqXqXqXqXqXqXqXqXqXqXqXqXqXqXqXqXqXX 4 './.%.4.C.!.U.L.P.!.!.!.!.!.!.!.!.!.!.!.!.!.P.L.t.K qXqXqXqXqXqXqXqXqXqXqXqXqXqXqXqXqXqX",
"qXqXqXqXqXqXqXqXqXqXqXqXqXqXqXqXqXqXqX1.).%.4.N.P.L.L.L.L.L.L.L.L.L.L.L.L.L.L.L.L.L.L.I.b.T < qXqXqXqXqXqXqXqXqXqXqXqXqXqXqXqXqX",
"qXqXqXqXqXqXqXqXqXqXqXqXqXqXqXqXqXqXqXn W 5.M.P.L.L.L.L.L.L.L.L.L.L.L.L.L.L.L.L.L.L.L.I.z.I , qXqXqXqXqXqXqXqXqXqXqXqXqXqXqXqXqX",
"qXqXqXqXqXqXqXqXqXqXqXqXqXqXqXqXqXqXqX  i V.^.L.L.L.L.L.L.L.L.L.L.L.L.L.L.L.L.L.L.L.L.I.z.I , qXqXqXqXqXqXqXqXqXqXqXqXqXqXqXqXqX",
"qXqXqXqXqXqXqXqXqXqXqXqXqXqXqXqXqXqXqXqX  b [.~.L.L.L.Y.P.L.L.L.L.L.L.L.L.L.L.L.L.I.I.I.z.I , qXqXqXqXqXqXqXqXqXqXqXqXqXqXqXqXqX",
"qXqXqXqXqXqXqXqXqXqXqXqXqXqXqXqXqXqXqXqXqX  X.+XL.L.S.t.g.L.L.L.L.L.L.L.L.L.L.L.D.u.a.L.z.I , qXqXqXqXqXqXqXqXqXqXqXqXqXqXqXqXqX",
"qXqXqXqXqXqXqXqXqXqXqXqXqXqXqXqXqXqXqXqXqXqX| @XL.P.m.! / t.K.L.L.L.L.L.L.L.L.D.w.E %.J.z.I , qXqXqXqXqXqXqXqXqXqXqXqXqXqXqXqXqX",
"qXqXqXqXqXqXqXqXqXqXqXqXqXqXqXqXqXqXqXqXqXqX .@XL.L.D.8.Q ~ t.L.L.L.L.L.L.L.G.q.Q ! r.L.z.I , qXqXqXqXqXqXqXqXqXqXqXqXqXqXqXqXqX",
"qXqXqXqXqXqXqXqXqXqXqXqXqXqXqXqXqXqXqXqXqXqX .@XL.L.L.D.8.Q / t.L.L.L.L.L.D.q.Q ~ r.K.Y.z.I , qXqXqXqXqXqXqXqXqXqXqXqXqXqXqXqXqX",
"qXqXqXqXqXqXqXqXqXqXqXqXqXqXqXqXqXqXqXqXqXqX .@XL.L.L.P.D.8.Q ^ t.L.L.L.G.q.Q ~ e.K.L.P.z.I , qXqXqXqXqXqXqXqXqXqXqXqXqXqXqXqXqX",
"qXqXqXqXqXqXqXqXqXqXqXqXqXqXqXqXqXqXqXqXqXqX .@XL.L.L.L.L.D.8.Q ^ t.L.D.0.Q ! r.K.L.L.I.z.I , qXqXqXqXqXqXqXqXqXqXqXqXqXqXqXqXqX",
"qXqXqXqXqXqXqXqXqXqXqXqXqXqXqXqXqXqXqXqXqXqX .@XL.L.L.L.L.L.D.8.Q / t.w.Q ~ e.K.L.L.L.I.z.I , qXqXqXqXqXqXqXqXqXqXqXqXqXqXqXqXqX",
"qXqXqXqXqXqXqXqXqXqXqXqXqXqXqXqXqXqXqXqXqXqX .@XL.L.L.L.L.L.L.D.9.! ~ ! / r.L.L.L.L.L.I.z.I , qXqXqXqXqXqXqXqXqXqXqXqXqXqXqXqXqX",
"qXqXqXqXqXqXqXqXqXqXqXqXqXqXqXqXqXqXqXqXqXqX .@XL.L.L.L.L.L.L.P.M.&.Q Q 7.H.L.L.L.L.L.I.z.I , qXqXqXqXqXqXqXqXqXqXqXqXqXqXqXqXqX",
"qXqXqXqXqXqXqXqXqXqXqXqXqXqXqXqXqXqXqXqXqXqX .@XL.L.L.L.L.L.L.G.w.! ! ! / t.L.L.L.L.L.I.z.I , qXqXqXqXqXqXqXqXqXqXqXqXqXqXqXqXqX",
"qXqXqXqXqXqXqXqXqXqXqXqXqXqXqXqXqXqXqXqXqXqX .@XL.L.L.L.L.L.D.q.Q ~ e.0.Q / t.L.L.L.L.I.z.I , qXqXqXqXqXqXqXqXqXqXqXqXqXqXqXqXqX",
"qXqXqXqXqXqXqXqXqXqXqXqXqXqXqXqXqXqXqXqXqXqX .@XL.L.L.L.L.G.q.Q ! e.L.D.8.Q ~ t.L.L.L.I.z.I , qXqXqXqXqXqXqXqXqXqXqXqXqXqXqXqXqX",
"qXqXqXqXqXqXqXqXqXqXqXqXqXqXqXqXqXqXqXqXqXqX .@XL.L.L.L.D.q.Q ~ r.K.L.L.D.8.Q / t.L.L.P.z.I , qXqXqXqXqXqXqXqXqXqXqXqXqXqXqXqXqX",
"qXqXqXqXqXqXqXqXqXqXqXqXqXqXqXqXqXqXqXqXqXqX .@XL.L.L.F.w.Q ~ e.K.L.L.L.L.D.8.Q / t.L.Y.z.I , qXqXqXqXqXqXqXqXqXqXqXqXqXqXqXqXqX",
"qXqXqXqXqXqXqXqXqXqXqXqXqXqXqXqXqXqXqXqXqXqX .@XL.L.D.0.Q ! r.K.L.L.L.L.L.L.D.8.Q ~ t.P.z.I , qXqXqXqXqXqXqXqXqXqXqXqXqXqXqXqXqX",
"qXqXqXqXqXqXqXqXqXqXqXqXqXqXqXqXqXqXqXqXqXqX .@XL.P.m.! ~ e.K.L.L.L.L.L.L.L.L.D.8.R %.J.z.I , qXqXqXqXqXqXqXqXqXqXqXqXqXqXqXqXqX",
"qXqXqXqXqXqXqXqXqXqXqXqXqXqXqXqXqXqXqXqXqXqX..#XL.L.A.e.p.K.L.L.L.L.L.L.L.L.L.L.S.r.i.L.x.Y < qXqXqXqXqXqXqXqXqXqXqXqXqXqXqXqXqX",
"qXqXqXqXqXqXqXqXqXqXqXqXqXqXqXqXqXqXqXqXqXqX' XXW.L.L.I.P.L.L.L.L.L.L.L.L.L.L.L.L.I.P.P.h.P ; qXqXqXqXqXqXqXqXqXqXqXqXqXqXqXqXqX",
"qXqXqXqXqXqXqXqXqXqXqXqXqXqXqXqXqXqXqXqXqXqX2 ].OXR.J.L.L.L.L.L.L.L.L.L.L.L.L.L.L.L.I.l.) f qXqXqXqXqXqXqXqXqXqXqXqXqXqXqXqXqXqX",
"qXqXqXqXqXqXqXqXqXqXqXqXqXqXqXqXqXqXqXqXqXqXqX3.$XoX_.T.P.P.P.P.P.P.P.P.P.P.P.P.T.Z.d.( U p qXqXqXqXqXqXqXqXqXqXqXqXqXqXqXqXqXqX",
"qXqXqXqXqXqXqXqXqXqXqXqXqXqXqXqXqXqXqXqXqXqXqX0 C C V c x x x x x x x x x x x x c j a a u qXqXqXqXqXqXqXqXqXqXqXqXqXqXqXqXqXqXqX",
"qXqXqXqXqXqXqXqXqXqXqXqXqXqXqXqXqXqXqXqXqXqXqXqXqXqXqXqXqXqXqXqXqXqXqXqXqXqXqXqXqXqXqXqXqXqXqXqXqXqXqXqXqXqXqXqXqXqXqXqXqXqXqXqX",
"qXqXqXqXqXqXqXqXqXqXqXqXqXqXqXqXqXqXqXqXqXqXqXqXqXqXqXqXqXqXqXqXqXqXqXqXqXqXqXqXqXqXqXqXqXqXqXqXqXqXqXqXqXqXqXqXqXqXqXqXqXqXqXqX",
"qXqXqXqXqXqXqXqXqXqXqXqXqXqXqXqXqXqXqXqXqXqXqXqXqXqXqXqXqXqXqXqXqXqXqXqXqXqXqXqXqXqXqXqXqXqXqXqXqXqXqXqXqXqXqXqXqXqXqXqXqXqXqXqX",
"qXqXqXqXqXqXqXqXqXqXqXqXqXqXqXqXqXqXqXqXqXqXqXqXqXqXqXqXqXqXqXqXqXqXqXqXqXqXqXqXqXqXqXqXqXqXqXqXqXqXqXqXqXqXqXqXqXqXqXqXqXqXqXqX",
"qXqXqXqXqXqXqXqXqXqXqXqXqXqXqXqXqXqXqXqXqXqXqXqXqXqXqXqXqXqXqXqXqXqXqXqXqXqXqXqXqXqXqXqXqXqXqXqXqXqXqXqXqXqXqXqXqXqXqXqXqXqXqXqX",
"qXqXqXqXqXqXqXqXqXqXqXqXqXqXqXqXqXqXqXqXqXqXqXqXqXqXqXqXqXqXqXqXqXqXqXqXqXqXqXqXqXqXqXqXqXqXqXqXqXqXqXqXqXqXqXqXqXqXqXqXqXqXqXqX",
"qXqXqXqXqXqXqXqXqXqXqXqXqXqXqXqXqXqXqXqXqXqXqXqXqXqXqXqXqXqXqXqXqXqXqXqXqXqXqXqXqXqXqXqXqXqXqXqXqXqXqXqXqXqXqXqXqXqXqXqXqXqXqXqX",
"qXqXqXqXqXqXqXqXqXqXqXqXqXqXqXqXqXqXqXqXqXqXqXqXqXqXqXqXqXqXqXqXqXqXqXqXqXqXqXqXqXqXqXqXqXqXqXqXqXqXqXqXqXqXqXqXqXqXqXqXqXqXqXqX",
"qXqXqXqXqXqXqXqXqXqXqXqXqXqXqXqXqXqXqXqXqXqXqXqXqXqXqXqXqXqXqXqXqXqXqXqXqXqXqXqXqXqXqXqXqXqXqXqXqXqXqXqXqXqXqXqXqXqXqXqXqXqXqXqX",
"qXqXqXqXqXqXqXqXqXqXqXqXqXqXqXqXqXqXqXqXqXqXqXqXqXqXqXqXqXqXqXqXqXqXqXqXqXqXqXqXqXqXqXqXqXqXqXqXqXqXqXqXqXqXqXqXqXqXqXqXqXqXqXqX",
"qXqXqXqXqXqXqXqXqXqXqXqXqXqXqXqXqXqXqXqXqXqXqXqXqXqXqXqXqXqXqXqXqXqXqXqXqXqXqXqXqXqXqXqXqXqXqXqXqXqXqXqXqXqXqXqXqXqXqXqXqXqXqXqX",
"qXqXqXqXqXqXqXqXqXqXqXqXqXqXqXqXqXqXqXqXqXqXqXqXqXqXqXqXqXqXqXqXqXqXqXqXqXqXqXqXqXqXqXqXqXqXqXqXqXqXqXqXqXqXqXqXqXqXqXqXqXqXqXqX",
"qXqXqXqXqXqXqXqXqXqXqXqXqXqXqXqXqXqXqXqXqXqXqXqXqXqXqXqXqXqXqXqXqXqXqXqXqXqXqXqXqXqXqXqXqXqXqXqXqXqXqXqXqXqXqXqXqXqXqXqXqXqXqXqX",
"qXqXqXqXqXqXqXqXqXqXqXqXqXqXqXqXqXqXqXqXqXqXqXqXqXqXqXqXqXqXqXqXqXqXqXqXqXqXqXqXqXqXqXqXqXqXqXqXqXqXqXqXqXqXqXqXqXqXqXqXqXqXqXqX",
"qXqXqXqXqXqXqXqXqXqXqXqXqXqXqXqXqXqXqXqXqXqXqXqXqXqXqXqXqXqXqXqXqXqXqXqXqXqXqXqXqXqXqXqXqXqXqXqXqXqXqXqXqXqXqXqXqXqXqXqXqXqXqXqX",
"qXqXqXqXqXqXqXqXqXqXqXqXqXqXqXqXqXqXqXqXqXqXqXqXqXqXqXqXqXqXqXqXqXqXqXqXqXqXqXqXqXqXqXqXqXqXqXqXqXqXqXqXqXqXqXqXqXqXqXqXqXqXqXqX"
};
