/* XPM */
static char *_287cd7d48f64cd6c58cb74fefb6b5bfcuR7MBgdbB2XzQhj[] = {
/* columns rows colors chars-per-pixel */
"64 64 221 2 ",
"   c None",
".  c #000000",
"X  c #010609",
"o  c #020B0D",
"O  c #000807",
"+  c #020E12",
"@  c #030F18",
"#  c #031214",
"$  c #03141A",
"%  c #021A1E",
"&  c #031C23",
"*  c #021D28",
"=  c #031720",
"-  c #021E30",
";  c #042125",
":  c #04242B",
">  c #01282D",
",  c #032633",
"<  c #032B34",
"1  c #022C3B",
"2  c #092B38",
"3  c #03323D",
"4  c #012F40",
"5  c #043444",
"6  c #093546",
"7  c #03354B",
"8  c #033B4C",
"9  c #073B48",
"0  c #033D53",
"q  c #013E5B",
"w  c #033F60",
"e  c #07414D",
"r  c #054354",
"t  c #03435C",
"y  c #054A5E",
"u  c #014C57",
"i  c #024564",
"p  c #034A64",
"a  c #014569",
"s  c #034C6B",
"d  c #02526C",
"f  c #045369",
"g  c #024C73",
"h  c #00477A",
"j  c #014E7B",
"k  c #025376",
"l  c #02547C",
"z  c #025A7B",
"x  c #005877",
"c  c #024F85",
"v  c #035483",
"b  c #035B83",
"n  c #01558A",
"m  c #025C8D",
"M  c #085C83",
"N  c #015693",
"B  c #025D95",
"V  c #015B9C",
"C  c #035698",
"Z  c #046287",
"A  c #036294",
"S  c #016B94",
"D  c #02629D",
"F  c #026C99",
"G  c #04759E",
"H  c #025EA4",
"J  c #025EAD",
"K  c #0163A4",
"L  c #026CA3",
"P  c #0363AB",
"I  c #046AAD",
"U  c #0275A4",
"Y  c #037AA4",
"T  c #057DAC",
"R  c #0571AE",
"E  c #0464B3",
"W  c #056DB5",
"Q  c #0666BB",
"!  c #066BBC",
"~  c #096ABB",
"^  c #0967BB",
"/  c #097CB4",
"(  c #0D74BB",
")  c #0973B6",
"_  c #137EBA",
"`  c #0669C3",
"'  c #0C6DC3",
"]  c #136FC2",
"[  c #0B71C4",
"{  c #1275C4",
"}  c #177AC2",
"|  c #1A7BC4",
" . c #157ACA",
".. c #1A7BC9",
"X. c #1474C8",
"o. c #0583AD",
"O. c #0989B5",
"+. c #1283BC",
"@. c #1D8DBF",
"#. c #0A92BC",
"$. c #1494BE",
"%. c #1A88C6",
"&. c #0F9BC1",
"*. c #139CC2",
"=. c #1B9CC2",
"-. c #1197C0",
";. c #2B8DCE",
":. c #2487C9",
">. c #249DC3",
",. c #2895CD",
"<. c #2D92C7",
"1. c #3A9BCE",
"2. c #3699C8",
"3. c #268AD1",
"4. c #308FD3",
"5. c #2F93D5",
"6. c #3F97D4",
"7. c #3D9BD2",
"8. c #399DDA",
"9. c #3398D9",
"0. c #19A5C9",
"q. c #2BA7C7",
"w. c #30A7C7",
"e. c #38ABC9",
"r. c #34A6CB",
"t. c #3EB4CD",
"y. c #3FA5D6",
"u. c #27ADD2",
"i. c #419FCF",
"p. c #4BABCD",
"a. c #43A6C8",
"s. c #44B1CC",
"d. c #4AB6CD",
"f. c #4BA6D5",
"g. c #4DACD2",
"h. c #4BA7DD",
"j. c #47A8DB",
"k. c #54AEDC",
"l. c #56ADD5",
"z. c #4BB3D1",
"x. c #42B3D2",
"c. c #5AB2D5",
"v. c #56B3DA",
"b. c #5BB6DB",
"n. c #58BAD4",
"m. c #66BAD4",
"M. c #67B9D7",
"N. c #49AAE4",
"B. c #52ACE6",
"V. c #54B3E3",
"C. c #5EBAE3",
"Z. c #64BEE6",
"A. c #6CBDE4",
"S. c #69BBE5",
"D. c #72BDE1",
"F. c #72C1DE",
"G. c #7BC6DD",
"H. c #7DC9DF",
"J. c #73C2D4",
"K. c #7FD0DD",
"L. c #6CCBDD",
"P. c #5CC0E7",
"I. c #6DC1E4",
"U. c #67C3E9",
"Y. c #72C4E5",
"T. c #7BCAE5",
"R. c #79C7E9",
"E. c #79D1EC",
"W. c #79CAF1",
"Q. c #82CADC",
"!. c #85C7DC",
"~. c #96D4DB",
"^. c #86CFEA",
"/. c #84C8E4",
"(. c #94CDE2",
"). c #98CDE2",
"_. c #8ED4E5",
"`. c #8AD2EA",
"'. c #88D5E9",
"]. c #93D3E5",
"[. c #9AD3E3",
"{. c #93D4EA",
"}. c #9BD6ED",
"|. c #9DDCEC",
" X c #9AD9EA",
".X c #8AD7F5",
"XX c #95DBF2",
"oX c #9BDDF4",
"OX c #9FDFF9",
"+X c #ADDCE4",
"@X c #A2DBED",
"#X c #ADDEE9",
"$X c #A2D6E4",
"%X c #B4DEE7",
"&X c #A5DFF2",
"*X c #AADFF1",
"=X c #B3DEF2",
"-X c #9CE2F9",
";X c #A8E1E9",
":X c #B9E1E7",
">X c #B4E2EC",
",X c #BBE3ED",
"<X c #BAE9EE",
"1X c #A6E3F4",
"2X c #ADE3F4",
"3X c #B3E4F1",
"4X c #BCE6F1",
"5X c #B4E9F5",
"6X c #B4E9F9",
"7X c #B4E9F8",
"8X c #C2E4E6",
"9X c #C4E5EC",
"0X c #C5E9EE",
"qX c #CAE0E8",
"wX c #C2E4F2",
"eX c #C4E9F3",
"rX c #CBEBF3",
"tX c #C0ECFA",
"yX c #C8E7F1",
"uX c #C8F2FB",
"iX c #D0F1F7",
/* pixels */
"                                                                                                                                ",
"                                                                                                                                ",
"                                                                                                                                ",
"                                                                                                                                ",
"                                                                      8X                                                        ",
"                                                        $X@X[.(.(.).$X#X>X3X                                                    ",
"                                                  6X].m.d.e.w.w.w.w.w.e.s.n.G.  9X9X0X8X                                        ",
"                                      0X    [.!.F.n.q.$.O.T Y U U Y Y Y T O.>.c.(.#X9X9X9X                                      ",
"                                      :X>X@XT.x.=.#.o.S k t t t q i s a k m L _ 2.m.~.>X9X9X                                    ",
"                                    ,X#X].n.u.*.G x i t 7 , , , ; 1 8 8 t s k B R @.g.{.,X,X                                    ",
"                            +X%X4X4X#XQ.d.0.O.S f 8 1 1 1 & # # o o + & , 9 r s v K +.1.G.>X                                    ",
"                              9XeX4X_.t.*.o.Z 0 > ; = $ @ X . . . . . X o # , 7 0 g N ) ,.F.*X                                  ",
"                                  H.x.&.Y z 8 * o O . . . . . . . . . . . O $ ; < 7 a n W :.A.=XwX                              ",
"                                '.z.-.Y z 8 * o . . . . . . . . . . . . . . O o * 3 8 a m W ;./.=X,X                            ",
"                               Xn.*.T b q , * + . . . . . . . . . . . . . . . . . @ * 4 i m W 6.].>X<X                          ",
"                              L.q.o.b i 6 ; + O . . . . . . . . . . . . . . . . . o : 3 0 g K { c.|.,X0X                        ",
"                            Q.s.#.F p 5 : # O . . . . . . . . . . . . . . . . . . . $ 1 r s m I :.T.5XeX                        ",
"                            J.>.T l 0 : + . . . . . . . . . . . . . . . . . . . . . X % 1 0 k B ) f.oXtXuX9X                    ",
"                            a.#.S i - X . . . . . . . . . . . . . . . . . . . . . . . O ; 5 t l H | A.7XuX0X0X                  ",
"                            >.T l 7 & X . . . . . . . . . . . . . . . . . . . . . . . . O $ 5 s V ^ 7._.5XwX0X9X                ",
"                          l.$.F k 3 # . . . . . . . . . . . . . . . . . . . . . . . . . . . & 0 b P | I.1X4X9X9X                ",
"                        ^.r.o.Z 0 * O . . . . . . . . . . . . . . . . . . . . . . . . . . . + 3 d D ( l.XX3XeX                  ",
"                        M.=.G z 7 $ . . . . . . . . . . . . . . . . . . . . . . . . . . . . X < f B ! 2.^.3X                    ",
"                      }.g.O.A s 7 * X . . . . . . . . . . . . . . . . . . . . . . . . . . . . & t m E :.Y.7XtX                  ",
"                      _.r.T b f e > O . . . . . . . . . . . . . . . . . . . . . . . . . . . . $ 7 l K { b.2XtX                  ",
"                      K.=.U b y 6 & . . . . . . . . . . . . . . . . . . . . . . . . . . . . . $ 5 d D ! i.XX6XuXiX              ",
"                      J.$.L l 0 , X . . . . . . . . . . . . . . . . . . . . . . . . . . . . . $ 9 p A E ;.E.1XeXrX              ",
"                      m.$.U l 7 + . . . . . . . . . . . . . . . . . . . . . . . . . . . . . . + 1 t b P :.R.|.,X0X              ",
"                      c.-.F i , X . . . . . . . . . . . . . . . . . . . . . . . . . . . . . . X < y z K | Y.|.,X9X              ",
"                    |.z.+.m 7 & O . . . . . . . . . . . . . . . . . . . . . . . . . . . . . . O : 0 z K | I.oX,X9X              ",
"                    @Xz./ m 8 ; o . . . . . . . . . . . . . . . . . . . . . . . . . . . . . . O * 8 M K | A.XX>X0X8X            ",
"                    2Xp./ b 8 > # . . . . . . . . . . . . . . . . . . . . . . . . . . . . . . . & 8 l H } A.XX#X0X8X            ",
"                    >Xp./ l 7 & X . . . . . . . . . . . . . . . . . . . . . . . . . . . . . . . : y b K } Z.XX3X                ",
"                      p./ n w , X . . . . . . . . . . . . . . . . . . . . . . . . . . . . . . . ; y b K } Z.XX7X                ",
"                qX    a./ A k e + . . . . . . . . . . . . . . . . . . . . . . . . . . . . . . . * y v K } C.oX6X                ",
"                      p.O.A s 6 # . . . . . . . . . . . . . . . . . . . . . . . . . . . . . . . * t l V X.C.-X                  ",
"                      c.+.A a 3 $ . . . . . . . . . . . . . . . . . . . . . . . . . . . . . . . , t v K ..U.1X                  ",
"                      S.%.A p 1 $ . . . . . . . . . . . . . . . . . . . . . . . . . . . . . . o 3 y b E ;.U.1X                  ",
"                      Y.,.K s 1 $ . . . . . . . . . . . . . . . . . . . . . . . . . . . . . O % 3 s A ~ 8.R.&X                  ",
"                        2.I j 8 % O . . . . . . . . . . . . . . . . . . . . . . . . . . . . O ; 5 k K [ j.T.*X                  ",
"                  rX    y.) N i < + . . . . . . . . . . . . . . . . . . . . . . . . . . . . o : 0 b I  .V.{.                    ",
"                  rX    k.%.D g r > O . . . . . . . . . . . . . . . . . . . . . . . . . . O % 1 0 b E %.U.@X                    ",
"                  0X    M.<.I j 0 3 & O . . . . . . . . . . . . . . . . . . . . . . . . . O $ 1 p B ` 8..X7X                    ",
"                  8X9X  @Xk.( B p 3 > + . . . . . . . . . . . . . . . . . . . . . . . . . + < 8 k H X.B.XX                      ",
"                      eXwXR.%.L k u e 2 @ . . . . . . . . . . . . . . . . . . . . . . . X ; 8 d B Q ;.A.}.                      ",
"                      yXyX@X7.R b d r 5 & X . . . . . . . . . . . . . . . . . . . . . . @ : 7 l K X.j.^.                        ",
"                      yXyX4XM._ D l t 1 & o . . . . . . . . . . . . . . . . . . . . . . + 1 s B Q ;.Z.}.                        ",
"                      9XyXrX@X7.W B d 8 < & # X . . . . . . . . . . . . . . . . . . O $ , 0 v P ..k.`.                          ",
"                      9XeXeX3XD.%.E B z p 6 > & # O . . . . . . . . . . . . . . . O $ 1 8 a C ` 8.R.&X                          ",
"                        5X;X%X[.l.} J v p 0 1 & o O . . . . . . . . . . . . . . O $ , 7 i n E 3.Z.oX                            ",
"                          +X+X+X!.2.) D l t 5 : # O . . . . . . . . . . . . o # ; 2 5 q v P | b..X                              ",
"                              :X#XT.1.( V g 0 5 : $ + O . . . . . . . O X $ , 1 1 4 0 j H X.N.W.oX                              ",
"                                >X|.Y.4.! C g 7 1 1 < & o O . . . . . o & ; 1 7 7 q v J { y.W.OX                                ",
"                                  3X|.I.4.~ H k t 0 7 3 < & $ $ # $ * > < 6 7 0 s N E  .N.E.XX                                  ",
"                                    uX6XR.6.] J m j i 0 8 3 3 1 < , 3 5 5 0 a l V Q 3.B.W.oX                                    ",
"                                         XH.f.} W K B v g t 8 7 1 1 7 q a c V E { 5.P..XOX                                      ",
"                                          ;X_.M.1.:.] E H C c j h h n V J ~ } 5.V.W..X                                          ",
"                                              [.Q.M.g.1.:...] ^ Q ` [  .;.j.v.I..X                                              ",
"                                                    /.T.D.M.v.h.h.B.V.C.I.T.^.                                                  ",
"                                                          _.'.^.`.XX-X                                                          ",
"                                                                                                                                ",
"                                                                                                                                ",
"                                                                                                                                ",
"                                                                                                                                "
};
