/* XPM */
static char *result[] = {
/* columns rows colors chars-per-pixel */
"64 64 242 2 ",
"   c gray1",
".  c #040404",
"X  c gray2",
"o  c #060606",
"O  c #070707",
"+  c gray3",
"@  c #090909",
"#  c gray4",
"$  c #0B0B0B",
"%  c #0C0C0C",
"&  c gray5",
"*  c #0E0E0E",
"=  c gray6",
"-  c #101010",
";  c #111111",
":  c gray7",
">  c #131313",
",  c gray8",
"<  c #151515",
"1  c #161616",
"2  c gray9",
"3  c #181818",
"4  c #191919",
"5  c gray10",
"6  c #1B1B1B",
"7  c gray11",
"8  c #1D1D1D",
"9  c #1E1E1E",
"0  c gray12",
"q  c #202020",
"w  c gray13",
"e  c #222222",
"r  c #232323",
"t  c gray14",
"y  c #252525",
"u  c gray15",
"i  c #272727",
"p  c #282828",
"a  c gray16",
"s  c #2A2A2A",
"d  c gray17",
"f  c #2C2C2C",
"g  c #2D2D2D",
"h  c gray18",
"j  c #2F2F2F",
"k  c gray19",
"l  c #313131",
"z  c #323232",
"x  c gray20",
"c  c #343434",
"v  c #353535",
"b  c gray21",
"n  c #373737",
"m  c gray22",
"M  c #393939",
"N  c #3A3A3A",
"B  c gray23",
"V  c #3C3C3C",
"C  c gray24",
"Z  c #3E3E3E",
"A  c #3F3F3F",
"S  c gray25",
"D  c #414141",
"F  c gray26",
"G  c #434343",
"H  c #444444",
"J  c gray27",
"K  c #464646",
"L  c gray28",
"P  c #484848",
"I  c gray29",
"U  c #4B4B4B",
"Y  c #4C4C4C",
"T  c gray30",
"R  c #4E4E4E",
"E  c gray31",
"W  c #505050",
"Q  c #515151",
"!  c gray32",
"~  c #535353",
"^  c gray33",
"/  c #555555",
"(  c #565656",
")  c gray34",
"_  c #585858",
"`  c gray35",
"'  c #5A5A5A",
"]  c #5B5B5B",
"[  c gray36",
"{  c #5D5D5D",
"}  c gray37",
"|  c #5F5F5F",
" . c #606060",
".. c gray38",
"X. c #626262",
"o. c gray39",
"O. c #646464",
"+. c #656565",
"@. c #676767",
"#. c #686868",
"$. c DimGray",
"%. c #6A6A6A",
"&. c gray42",
"*. c #6C6C6C",
"=. c #6D6D6D",
"-. c gray43",
";. c #6F6F6F",
":. c gray44",
">. c #717171",
",. c #727272",
"<. c #747474",
"1. c #767676",
"2. c gray47",
"3. c #797979",
"4. c gray48",
"5. c #7B7B7B",
"6. c #7C7C7C",
"7. c gray49",
"8. c #7E7E7E",
"9. c gray50",
"0. c #808080",
"q. c #818181",
"w. c gray51",
"e. c #838383",
"r. c #848484",
"t. c gray52",
"y. c #868686",
"u. c gray53",
"i. c #888888",
"p. c #898989",
"a. c #8B8B8B",
"s. c gray55",
"d. c #8D8D8D",
"f. c #8E8E8E",
"g. c gray56",
"h. c #909090",
"j. c gray57",
"k. c #929292",
"l. c gray58",
"z. c #959595",
"x. c gray59",
"c. c #979797",
"v. c #989898",
"b. c gray60",
"n. c #9A9A9A",
"m. c #9B9B9B",
"M. c gray61",
"N. c #9D9D9D",
"B. c gray62",
"V. c #9F9F9F",
"C. c #A0A0A0",
"Z. c #A2A2A2",
"A. c gray64",
"S. c #A4A4A4",
"D. c #A5A5A5",
"F. c gray65",
"G. c #A7A7A7",
"H. c gray66",
"J. c #A9A9A9",
"K. c #AAAAAA",
"L. c gray67",
"P. c #ACACAC",
"I. c gray68",
"U. c #AEAEAE",
"Y. c #AFAFAF",
"T. c gray69",
"R. c #B1B1B1",
"E. c #B2B2B2",
"W. c gray70",
"Q. c gray71",
"!. c #B6B6B6",
"~. c #B7B7B7",
"^. c gray72",
"/. c #B9B9B9",
"(. c gray73",
"). c #BBBBBB",
"_. c #BCBCBC",
"`. c gray74",
"'. c gray",
"]. c gray75",
"[. c #C0C0C0",
"{. c #C1C1C1",
"}. c gray76",
"|. c #C3C3C3",
" X c gray77",
".X c #C5C5C5",
"XX c #C6C6C6",
"oX c gray78",
"OX c #C8C8C8",
"+X c gray79",
"@X c #CACACA",
"#X c #CBCBCB",
"$X c gray80",
"%X c #CDCDCD",
"&X c #CECECE",
"*X c gray81",
"=X c #D0D0D0",
"-X c gray82",
";X c #D2D2D2",
":X c LightGray",
">X c gray83",
",X c #D5D5D5",
"<X c gray84",
"1X c #D7D7D7",
"2X c #D8D8D8",
"3X c gray85",
"4X c #DADADA",
"5X c gray86",
"6X c gainsboro",
"7X c #DDDDDD",
"8X c gray87",
"9X c #DFDFDF",
"0X c gray88",
"qX c #E1E1E1",
"wX c #E2E2E2",
"eX c gray89",
"rX c #E4E4E4",
"tX c gray90",
"yX c #E6E6E6",
"uX c #E7E7E7",
"iX c gray91",
"pX c #E9E9E9",
"aX c #EAEAEA",
"sX c gray92",
"dX c #ECECEC",
"fX c gray93",
"gX c #EEEEEE",
"hX c #EFEFEF",
"jX c gray94",
"kX c #F1F1F1",
"lX c gray95",
"zX c #F3F3F3",
"xX c #F4F4F4",
"cX c gray96",
"vX c #F6F6F6",
"bX c gray97",
"nX c #F8F8F8",
"mX c #F9F9F9",
"MX c gray98",
"NX c #FBFBFB",
"BX c gray99",
"VX c None",
/* pixels */
"VXVXVXVXVXVXVXVXVXVXVXVXVXVXVXVXVXVXVXVXBXcXvXBXBXBXBXBXfX..$.k.VXVXVXVXVXVXVXVXVXVXVXVXVXVXVXVXVXVXVXVXVXVXVXVXVXVXVXVXVXVXVXVX",
"VXVXVXVXVXVXVXVXVXVXVXVXVXVXVXVXVXVXC 4XbXnXnXBXBXBXBXBXqXC / #.R VXVXVXVXVXVXVXVXVXVXVXVXVXVXVXVXVXVXVXVXVXVXVXVXVXVXVXVXVXVXVX",
"VXVXVXVXVXVXVXVXVXVXVXVXVXVXVX_ D l m 4XxXNXBXBXBXBXBXBXqXB n b D K h +.VXVXVXVXVXVXVXVXVXVXVXVXVXVXVXVXVXVXVXVXVXVXVXVXVXW.9XpX",
"VXVXVXVXVXVXVXVXVXVXVXVXVXk s V n j z 3XxXNXBXBXBXBXBXBXqXC m v x l h I K E VXVXVXVXVXVXVXVXVXVXVXVXVXVXVXVXVXVXVXVXVXW j 2.0XaX",
"VXVXVXVXVXVXVXVXVXVXVXY 9 e r y f k z 3XxXNXBXBXBXBXBXBXqXV n c x k s y w n h N VXVXVXVXVXVXVXVXVXVXVXVXVXVXVXVXJ.&.9 c p p qXaX",
"5XVXVXVXVXVXVXVXtX!.a j 5 7 0 y s j x 3XnXBXBXBXBXBXBXBXqXV M b z g d u 0 9 6 u 5 1 >XVXVXVXVXVXVXVXVXVXVXVX~ M ` F 4 7 0 i 8XdX",
"=X$XXX$X&X-XOX+X-XU., 3 4 8 r a d h x 3XvXNXBXBXBXBXBXBXqXV m b z g a y e 0 5 1 ; ; OX#X$X8X5XVXVXVXVX4XJ.h t q , 1 3 9 w u 7XsX",
"$XoXoXoXXXoX.X.X@XI.> 1 4 8 w t s j j 6XcXNXBXBXBXBXBXBXqXC m v x g s u e 9 4 2 , & }.#X.X@XoX|.|.}..XOXN.g $ = 1 4 6 q e y 7XpX",
"$X+XXX|.oX X|.XX#XY.< 4 8 q w u g l l 7XcXnXNXMXmXmXMXNXqXV n b c h d i r 0 5 3 , % }.#X X{.}.{.}.}.}.{.n.s % : < 5 9 q e r 7XsX",
"$X#X#X|. X}. X+X#XY.< 2 3 7 w p h l v 4XsXkXdX XE.I.(.,X1X..^ B z g g i w 0 5 < ; & }.XX}.}.{.}.{.].[.].v.y $ * : 1 6 w q t 0XhX",
"$X#XXX}.|..X X+X#XY.< 3 7 8 w p h / &.D.$.S A C A G S S u.dX$X1.| N d u w 9 3 < - ; }.oXXX}.{.].].].[.}.n.t & : , 5 8 w e y 9X0X",
"$X#X.XoX|.|. X+X%XQ., 3 8 q l  .1.{.fXi.b V Z A S F D A r.fXbXzX,Xj.*.L w 8 3 < , : }.+X X|.[.].{.{.].[.b.w $ = , 4 9 w i @.OXi.",
"$X+XoX X}.|. XXX#XY.1 6 F =.s.$XaXhXlXu.N C Z A S S S A q.uXxXlXhXfX5XS.<.L 6 < > % }..X X|.}.}.].[.].}.m.8 $ % : < y =.q.:X~ j ",
"$X@XXXoX X|. X X#XR.U 3.N.*XtXaXdXkXdXe.V Z Z Z S Z A Z 4.7XcXcXjXaXpXtX2XZ.3.G < * }.OXoX|.|.}.}.{.].|.m.< $ = R 1.y.;XuXuX_ h ",
"W.XX XoX X|.|.'.J.C.S.>X7X8XwXiXgXjXyX9.C Z A S A A Z V ,.>XvXbXkXpXuXrX0X7X:XB.9.} [.OX.X}.|.}.|.{.[.{.v.8 ..q.G.-X6XqXrXiX' z ",
"_ c.N.V.B.B.N.h.t 3.>X1X6X9XrXpXdXdX8X4.C Z A S A S Z S =.%XvXlXhXaXyXqXqX0X3X-X&XU.N.C.A.!.'._.'.).E.A.j.r.W.-X>X3X7X0XeXuX_ z ",
"@ o O % 4 = . @ = 3.>X,X4X8XwXiXfXgX1X<.N C Z S S S A S @. XxXgXsXsXiXqX9X8X2X*X-X#XJ   V q.d.f.d.p.:.m i.OX%X;X,X2X7X7XwXpX` h ",
"& O o X O   X * * 3.>X<X5X0XrXuXsXhX-X:.N C Z A S A A S X.`.kXgXfXsXpXrX8X4X1X>X;X%XJ .   . o o   . o X i.@X&X:X<X2X7X9XrXpX` h ",
"& @ o o # . . % * 3.,X4X8XqXyXiXaXjX#X%.C A L Q W Q P A { ~.zXjXgXsXpXrX9X6X<X,X;X%XJ . O . X   X . X . p.#X*X:X3X4X8XeXuXaX` h ",
"% o o X o . o @ * 3.,X4X9XeXuXaXsXjXXXS.].OX@X$X$X$X@XoX`.^.fXlXgXsXuXwX9X7X1X>X;X@XG . o       X     X p.+X&X>X2X4X8XwXyXpX] l ",
"% + @ .   . @ % = 3.>X2X8XwXuXaX&XL.b.3XvXBXBXBXBXMXNXBXfXY.m.T.1XsXyXwX9X5X1X>X-X@XJ O .             . i.OX$X:X1X5X8XqXtXpXO.I.",
"% @ # X X . # $ & 3.,X2X6X3X~.l.1.K 6.uXNXBXBXBXBXNXNXBXjXL.m T 7.x.}.9X8X3X<X>X*X+XH O . . .         . i.+X$X=X,X5X8XwXE.z. XuX",
"% # @ X . X + * = 4.<X@XV.7.] f j c e.yXNXNXBXNXBXBXBXBXzX/.m c j l @.e.).,X,X>X%XOXG . . .         . . a.#X%X=X>X;XC.t.( k wXgX",
"$ X .     . . % , Y 8.$.H e y d k c k.aXNXNXNXBXBXBXBXBXcX{.v z f d t e ] ,.V.@X%XoXF   . .       . . o p.#X*X).p.;.J y i d wXlX",
">.m h a d g n 1.oX!.1 7 9 y s d h x n.dXNXBXNXBXBXBXBXBXnX%Xn x j d u w 9 4 < = ! !.Y > X . o X   . - t 0.d.a : 3 9 9 u t s rXgX",
"#X@X XQ.^.[.oX%X=XQ.2 6 q y a d l v S.dXNXNXBXBXBXNXMXBXMX<Xv z g i r w 8 6 4 > & $ Y.-.L D D D D J @.A.b.& - > 2 6 8 e a j eXzX",
"OX@X.X X XXX.X#X*X~.3 7 0 t a f h x J.hXBXBXBXBXBXBXBXBXMX>Xb c l s t q 9 6 2 : & $ ).[.}.[.{.{.].{.}.}.n.$ * , 1 3 7 q a l tXzX",
"#X#X X X.X.XOX#X%X!.4 9 w t p f l x I.hXBXBXNXNXNXNXBXBXNX<Xz k d p r w 8 4 < ; * # ).}.}.[.{.[.[.{.{.|.m.$ - 1 2 4 0 e u v aXkX",
"#XOXXXOXXXOX#X#X&XQ.3 9 q r a h z b P.6XqX0X6X5X5X6X0XwXaX1Xl j g d y q 6 2 < = % # `.}.{.[.{.}.}.{.}.|.b.$ ; < 4 9 q u i C uXzX",
"#X.X+XOX.XXX@X$X;X~.2 8 w y p f @.a.m.$.F Z Z S S C M U p._.7.S f p t 0 5 2 > ; & + ).{.}.{.}.}.}.}.}. Xm.$ - , 1 6 0 i i J ;X>X",
"#XOXOX|.XXOX#X@X;X~.3 8 w V 3.x..XdXB.P Z Z Z S S Z B Z M h.5XC.u.' r q 8 3 < : % $ _.}.|.[.[.{.|.}.}.+XB.$ = < 1 5 q a 6.p.q.C ",
"#X#X X|..X.X+X@X;X~.1 R t.Z.=XgXlXxXN.L Z Z Z S S S Z C N k.kXsX9X^.s.) 6 2 , = # @ '.XX|.[.[.}.}.{.{..XM.$ * < 2 n r.m.>X%X! b ",
"#X#X.X|..XXX@X-X-X/.f.L.>XtXaXgXjXzXM.K A A A S A A Z B n j.hXsXaXaX6XW.f.) 8 ; # O _.|.|.{.].[.[.{. XoXn.$ - ^ t.C.,XyXiXOX! m ",
"`.+XOX XXX XXXS.n.Z.>X7XwXuXdXhXjXzXm.G A A S S A Z Z B N f.fXsXpXiXtX9X,XT.z.%.a o (.}.}.[.[.[.[.}. XoXC.*.z.U.&X8XqXtXiX{.W N ",
"5.h.h.f.j.d.p.c 1 5.3X0XeXuXsXhXzXxXm.H A A S A A Z A Z N g.gXdXpXtXeX8X4X<X=X~.b.q.D._.}.{.[.[.[._.Z.g.c.!.-X,X4X0XwXiXaX_.T M ",
"$ $ & 1 * # $ * < 7.5X0XrXiXsXhXzXxXn.G A A S A A Z A Z M g.hXfXpXrXwX8X2X;X-X%XOX).*.7.t.r.w.e.e.5.Q < p.#X-X,X4X9XeXuXaX).Y n ",
"$ # @ @ @ # % : , 7.5X8XeXyXpXgXzXcXv.D A Z S A A Z Z V m j.jXfXpXtXwX7X2X:X;X$XoX XK o       .   . . + a.$X-X1X3X8XrXuXaX!.Y m ",
"$ @ @ @ + # + - < 8.6X9XeXuXsXgXlXvXb.D A A S S S Z Z V b j.kXdXiXtXwX7X3X,X;X&X+X+XI o       .       X d.&X;X<X3X7XwXuXpXU.L b ",
"$ O @ O # # @ - < 8.6X9XrXuXaXjXxXkXT.}.3X5X5X5X5X3X].0.B h.hXsXaXyXqX8X2X,X:X*X+X+XY o               . a.%X-X1X5X8XwXtXpXL.L b ",
"* @ @ o O @ % = , 8.6X0XtXuXaX>XZ.u.#XkXNXBXBXBXBXNXcXiX4X$X<XsXaXtX9X7X3X,X-X$XoX.XQ +   .         X + a.%X;X1X4X0XeXyXaXA./.2X",
"# @ O   $ O = = < 9.7X6X3XD.V z n m >XMXBXBXBXBXBXBXBXNXvX>Xl ~ L.7X8X8X5X<X;X$X@X X! +   X           O g.-X>X<X8X8X8XF.Y f.fXxX",
"% o @ + # # % ; q 7..Xu.d d d k v m >XnXNXBXBXBXBXBXBXMXcX>Xz d p b B.&X;X:X*X$XOXXX_ $   X   X     X @ f.;X:X=X%Xy.l s f g.fXvX",
"; @ # X X $ i ! $.3.0 9 u d f l b N ,XMXBXBXBXBXBXBXMXvXmX:Xk d p r q s z.{.OX@X+XOX[ %   X       . o @ e.|.Q.<.r q t a d n.gXxX",
"O.} _ ^ { ..8..X>X/.8 0 i d g z v m 5XNXBXBXBXBXBXBXBXMXxX;Xh d p r w 8 2 , ,.I.W.`...*   . .     > A } ) n < 9 0 u p s g C.gXxX",
"$XOX]./.XX#X&X*X,X(.0 q i s g c n M 5XBXBXBXBXBXBXBXNXmXxX>Xk f p e 0 5 3 , ; % 0 s.o.+.+.+.O.o.+.*.n.OXB.> 2 8 9 q p d g F.hXvX",
"$X#X+X@XOX#X=X:X2X].q 0 y d h l c b 4XBXBXBXBXBXBXMXbXmXvX:Xg d p w 0 6 < , * # + . *.[.|.}.}.{.}.|. XXXB.; < 4 8 0 u s g K.hXmX",
"$X+X.X#X#X+X&X,X4X].q 0 i d h k x b 5XBXBXBXBXBXBXnXbXNXnX,Xz d i r 0 4 < > * @ o   +.[.|.|.}.}.}. XoXoXB.; 1 4 7 w u s g R.hXbX",
"#XoXoX@X#X#X*X>X<X].0 q i f l v v m ^.=X&X*X*X*X*X:XaXNXcX<Xk d y e 0 4 1 > = $ @ X ' [.|.|.[.].[..X+X@XC.> < 2 8 w e p g Q.jXmX",
"$XOX@XoX+X$X:X>X1X`.w e u d k $.C.Y.4.L C A S D S ^ V.XX=X>Xh d i w 8 5 2 > * % O X ' [.|.{.{.].}.XX+X$XZ.; 1 5 7 q y p k I.{.}.",
"$X+XOXoXXX+X*X-X1X_.w u n q.L..XfXnXz.A A S S A A A Z B =.!.N.O.i q 7 4 < : & @ o   ( '.|.].[.{.|. X+X#XB.; < 5 9 w i t.H.j.K C ",
"#X@X+X+X@X+X&X-X<X'.^ x.E.-XfXkXcXvXl.A A S A A Z A Z m n d.wX}.S.=.9 4 < : & # o . ( ].}.{.[.|. XXX+X#XB.; 1 5 x h.Y.-XsX2.m N ",
"#X#X#XOX#X$X-X>X@XV.^.<XuXpXhXxXcXnXx.S Z A Z A Z Z V v b f.fXpX0X.XG.:.4 > * + . X U '.}.{.].}.}.XXOX$XC., I l.W.>XuXpXjX1.M n ",
"+X$X#XoX#X@Xc.a.8.0.7XwXpXpXfXzXvXmXx.S Z A A S A Z C n v d.dXpXyXwX3X[.F.-.y @ o . L `.{.].{.{. X.XOXOXQ.F.!.-X0XwXiXsXkX,.n M ",
"4.6.6.3.7.5.n < 1 q.qXuXaXaXfXlXbXMXc.S Z A A A A Z B n v f.gXpXrX0X6X2X;X).P.f.A o H ].}.{.|.{.|.W.9.3.V.-X3X7X0XeXyXaXkX>.m n ",
"& + = % $ # = : 4 0.0XyXiXsXkXxXcXMXv.A Z Z A A Z Z V b v a.aXpXeX9X5X3X:X&X$X[.P.J.5.:.;.-.;.=.=.| 7 % g.>X3X6X8XrXpXsXhX-.b B ",
"@ O * + $ % 1 2 3 q.qXyXaXsXgXlXxXmXv.Z S Z A A A A N N n i.iXiXeX9X5X2X,X;X$XOX.X Xa.7 . . o   . o o # j.<X1X4X0XyXaXaXgX=.v Z ",
"& # O $ $ = : - 7 w.wXtXiXdXhXlXcXMXn.Z S S Z Z A Z M v c p.iXuXqX6X5X2X,X&X#X+X+X{.c.q     o     X @ = k.>X2X7X9XtXiXsXfX=.m Z ",
"+ o $ $ $ = ; > 8 e.qXtXiXgXlXzXxXmXBXVXVXVXVXVXVXZ N v b s.pXtXrXqX5X<X;X&X$XXX X|.c.w     .   . O & ; h.>X3X6X9XeXpXdXkX,.v Z ",
"$ # $ $ $ ; > ; r i.rXyXaXfXlXxXVXVXVXVXVXVXVXVXVXVXVXVXG k.pXtXrX9X1X>X;X;X%XXX X[.z.0   . +   . O @ % h.<X4X7XqXeXpXdXlXVXVXVX",
"$ # # $ $ % : 1 t i.eXrXrXVXVXVXVXVXVXVXVXVXVXVXVXVXVXVXVXVXpXtXqX6X2X>X*X*X@XOX|. Xv.q   . @   X o + & k.1X5X9X9XqXpXVXVXVXVXVX",
"$ O O $ * % > 1 i u.7XVXVXVXVXVXVXVXVXVXVXVXVXVXVXVXVXVXVXVXVXVX8X8X4X,X>X&XOX X}. Xv.q   . @   o $ $ % k.<X4X6X6XVXVXVXVXVXVXVX",
"& & @ $ ; % , , VXVXVXVXVXVXVXVXVXVXVXVXVXVXVXVXVXVXVXVXVXVXVXVXVXVX,X>X;X$X@XXX|.}.n.w   . O . X # # % j.,X1XVXVXVXVXVXVXVXVXVX",
"- 7 % $ $ $ VXVXVXVXVXVXVXVXVXVXVXVXVXVXVXVXVXVXVXVXVXVXVXVXVXVXVXVXVXVX#X$X$X.X|.[.B.7     . . o @ O $ VXVXVXVXVXVXVXVXVXVXVXVX",
"VXVXVXVXVXVXVXVXVXVXVXVXVXVXVXVXVXVXVXVXVXVXVXVXVXVXVXVXVXVXVXVXVXVXVXVXVXVXVX=XoX Xb.  .   . . X VXVXVXVXVXVXVXVXVXVXVXVXVXVXVX"
};
